<?xml version="1.0" encoding="utf-8"?>
<!-- Generator: Adobe Illustrator 25.2.1, SVG Export Plug-In . SVG Version: 6.00 Build 0)  -->
<svg version="1.1" id="Capa_1" xmlns="http://www.w3.org/2000/svg" xmlns:xlink="http://www.w3.org/1999/xlink" x="0px" y="0px"
	 viewBox="0 0 455.7 455.7" style="enable-background:new 0 0 455.7 455.7;" xml:space="preserve">
<style type="text/css">
	.st0{fill:#ED4989;}
	.st1{fill:#FFFFFF;}
</style>
<g>
	<path class="st0" d="M422.2,455.7H33.5C15,455.7,0,440.7,0,422.2V33.5C0,15,15,0,33.5,0h388.7c18.5,0,33.5,15,33.5,33.5v388.7
		C455.7,440.7,440.7,455.7,422.2,455.7z"/>
	<path class="st1" d="M227.9,55.4c-95.3,0-172.5,77.2-172.5,172.5s77.2,172.5,172.5,172.5c95.3,0,172.5-77.2,172.5-172.5
		S323.1,55.4,227.9,55.4z M373.4,226c-19.7-5.7-40.6-8.8-62.1-8.8c-13,0-25.8,1.1-38.2,3.3c-4-9.6-8.2-18.8-12.4-27.5
		c58.9-25.2,80.4-56.5,80.4-56.5l0,0C360.9,160.9,372.9,192,373.4,226z M227.9,82.3c37,0,70.9,13.8,96.5,36.6l0,0
		c-19.6,22.6-46.8,38.7-75.8,50.2c-28-52-54.6-82.9-54.6-82.9C204.9,83.7,216.2,82.3,227.9,82.3z M164.8,96.7
		c0,0,25.4,32.6,53.1,82.9c-66.6,19.1-132.5,18.1-132.5,18.1h0C94.9,153.1,124.8,115.9,164.8,96.7z M82.3,227.9c0-1.3,0-2.5,0-3.8h0
		c62.2,0.3,110.9-8.2,148.4-20.1c3.9,7.7,7.7,15.8,11.5,24.1c-51.6,16.7-95,51.7-122.5,97.3C96.5,299.5,82.3,265.4,82.3,227.9z
		 M227.9,373.4c-33.2,0-63.7-11.1-88.2-29.8c24.5-43.2,64.8-76.2,113.1-91.2c13.8,34.1,25.3,71.6,30.8,110
		C266.4,369.5,247.6,373.4,227.9,373.4z M308.7,348.9c-5-37.4-14.4-72.1-25.8-103.3c9.3-1.3,18.7-2,28.3-2c20.9,0,41.1,3.3,60,9.3
		C364.3,292.8,341.1,327.2,308.7,348.9z"/>
</g>
</svg>
