<svg xmlns="http://www.w3.org/2000/svg" width="184.106" height="184.107" viewBox="0 0 184.106 184.107">
  <g id="ic-cook" transform="translate(-24 -23.999)">
    <path id="Path_31" data-name="Path 31" d="M377.008,191.078A15.078,15.078,0,0,0,361.93,176H322.709a15.078,15.078,0,0,0-14.785,12.121L304,207.742h19.045V258.53h50.788V207.742h3.174Z" transform="translate(-168.902 -91.69)" fill="#eaeae8"/>
    <path id="Path_32" data-name="Path 32" d="M355.174,196.568A3.174,3.174,0,0,1,352,193.394v-22.22a3.174,3.174,0,0,1,6.349,0v22.22A3.174,3.174,0,0,1,355.174,196.568Z" transform="translate(-197.856 -86.865)" fill="#533222"/>
    <path id="Path_33" data-name="Path 33" d="M435.174,196.568A3.174,3.174,0,0,1,432,193.394v-22.22a3.174,3.174,0,1,1,6.348,0v22.22A3.174,3.174,0,0,1,435.174,196.568Z" transform="translate(-246.114 -86.865)" fill="#533222"/>
    <path id="Path_34" data-name="Path 34" d="M96,283.068V284.7a6.348,6.348,0,0,0,6.348,6.349v7.936a7.936,7.936,0,1,0,15.871,0V283.068A11.067,11.067,0,0,0,107.151,272h-.084A11.067,11.067,0,0,0,96,283.068Z" transform="translate(-43.432 -149.599)" fill="#d32b39"/>
    <path id="Path_35" data-name="Path 35" d="M402.788,384H352v41.265h19.045l3.174-19.045h6.348l3.174,19.045h19.045Z" transform="translate(-197.856 -217.16)" fill="#d18d28"/>
    <path id="Path_36" data-name="Path 36" d="M393.394,89.394V76.7A12.7,12.7,0,1,0,368,76.7v12.7a12.688,12.688,0,0,0,6.348,10.994v8.051h-3.174v3.174a9.523,9.523,0,1,0,19.045,0v-3.174h-3.174v-8.051A12.688,12.688,0,0,0,393.394,89.394Z" transform="translate(-207.508 -24.13)" fill="#fdc9a6"/>
    <path id="Path_37" data-name="Path 37" d="M24,392H131.924v15.871a22.22,22.22,0,0,1-22.22,22.22H46.22A22.22,22.22,0,0,1,24,407.871Z" transform="translate(0 -221.986)" fill="#2cbff4"/>
    <path id="Path_38" data-name="Path 38" d="M24,392H68.439v15.871a22.22,22.22,0,1,1-44.439,0Z" transform="translate(0 -221.986)" fill="#0a9acd"/>
    <path id="Path_39" data-name="Path 39" d="M265.136,256l-19.045,28.568H227.045l-12.7,3.174L208,275.045l6.348-9.523,9.523,3.174h12.7l9.523-12.7Z" transform="translate(-110.992 -139.948)" fill="#fdc9a6"/>
    <path id="Path_40" data-name="Path 40" d="M368,56h25.394V71.871H368Z" transform="translate(-207.508 -19.304)" fill="#eaeae8"/>
    <path id="Path_41" data-name="Path 41" d="M393.394,56v6.348a6.332,6.332,0,0,1-4.36-1.741,9.526,9.526,0,0,1-16.673,0A6.333,6.333,0,0,1,368,62.348V56Z" transform="translate(-207.508 -19.304)" fill="#cbcbcb"/>
    <path id="Path_42" data-name="Path 42" d="M393.394,56v6.348a6.332,6.332,0,0,1-4.36-1.741,9.526,9.526,0,0,1-16.673,0A6.333,6.333,0,0,1,368,62.348V56Z" transform="translate(-207.508 -19.304)" fill="#a8a8a8"/>
    <path id="Path_43" data-name="Path 43" d="M400,96l6.348,12.7H412.7V96Z" transform="translate(-226.811 -43.433)" fill="#533222"/>
    <path id="Path_44" data-name="Path 44" d="M352,232h38.091v44.439h3.174V314.53H352Z" transform="translate(-197.856 -125.471)" fill="#683b0d"/>
    <path id="Path_45" data-name="Path 45" d="M164.568,304h-22.22a6.348,6.348,0,1,0,0,12.7h28.568Z" transform="translate(-67.561 -168.902)" fill="#a8a8a8"/>
    <circle id="Ellipse_2" data-name="Ellipse 2" cx="6.348" cy="6.348" r="6.348" transform="translate(36.697 157.317)" fill="#02a437"/>
    <circle id="Ellipse_3" data-name="Ellipse 3" cx="6.348" cy="6.348" r="6.348" transform="translate(112.879 157.317)" fill="#fd7422"/>
    <rect id="Rectangle_80" data-name="Rectangle 80" width="19.045" height="9.523" rx="4.761" transform="translate(81.136 160.491)" fill="#683b0d"/>
    <g id="Group_3" data-name="Group 3" transform="translate(36.697 179.537)">
      <path id="Path_46" data-name="Path 46" d="M65.523,428.7A9.533,9.533,0,0,1,56,419.174a3.174,3.174,0,1,1,6.348,0,3.174,3.174,0,0,0,6.348,0,3.174,3.174,0,0,1,6.348,0A9.533,9.533,0,0,1,65.523,428.7Z" transform="translate(-56 -416)" fill="#026ca2"/>
      <path id="Path_47" data-name="Path 47" d="M179.174,428.7A3.174,3.174,0,0,1,176,425.523v-6.348a3.174,3.174,0,0,1,6.348,0v6.348A3.174,3.174,0,0,1,179.174,428.7Z" transform="translate(-128.386 -416)" fill="#026ca2"/>
      <path id="Path_48" data-name="Path 48" d="M211.174,428.7A3.174,3.174,0,0,1,208,425.523v-6.348a3.174,3.174,0,0,1,6.348,0v6.348A3.174,3.174,0,0,1,211.174,428.7Z" transform="translate(-147.689 -416)" fill="#026ca2"/>
      <path id="Path_49" data-name="Path 49" d="M243.174,428.7A3.174,3.174,0,0,1,240,425.523v-6.348a3.174,3.174,0,0,1,6.348,0v6.348A3.174,3.174,0,0,1,243.174,428.7Z" transform="translate(-166.992 -416)" fill="#026ca2"/>
    </g>
    <path id="Path_50" data-name="Path 50" d="M384,296h25.394v13.491a5.555,5.555,0,0,1-5.555,5.555H389.555A5.555,5.555,0,0,1,384,309.491Z" transform="translate(-217.159 -164.077)" fill="#533222"/>
    <path id="Path_51" data-name="Path 51" d="M434.917,256v22.22l-18.451,31.994-6.943,3.174L400,309.962v-9.523l6.348-6.348,12.7-22.22V256Z" transform="translate(-226.811 -139.948)" fill="#fdc9a6"/>
    <path id="Path_52" data-name="Path 52" d="M57.172,217.394A3.174,3.174,0,0,1,54,214.22a9.213,9.213,0,0,1,1.129-4.594,3.588,3.588,0,0,0,0-3.51,9.912,9.912,0,0,1,0-9.188,3.1,3.1,0,0,0,.458-1.754,3.174,3.174,0,0,1,6.348,0,9.212,9.212,0,0,1-1.129,4.594,3.588,3.588,0,0,0,0,3.509,9.912,9.912,0,0,1,0,9.188,3.1,3.1,0,0,0-.458,1.755A3.174,3.174,0,0,1,57.172,217.394Z" transform="translate(-18.094 -101.342)" fill="#fbb540"/>
    <path id="Path_53" data-name="Path 53" d="M105.172,217.394A3.174,3.174,0,0,1,102,214.22a9.213,9.213,0,0,1,1.129-4.594,3.588,3.588,0,0,0,0-3.51,9.912,9.912,0,0,1,0-9.188,3.1,3.1,0,0,0,.458-1.754,3.174,3.174,0,0,1,6.348,0,9.212,9.212,0,0,1-1.129,4.594,3.588,3.588,0,0,0,0,3.509,9.912,9.912,0,0,1,0,9.188,3.1,3.1,0,0,0-.458,1.755A3.174,3.174,0,0,1,105.172,217.394Z" transform="translate(-47.049 -101.342)" fill="#fbb540"/>
    <path id="Path_54" data-name="Path 54" d="M161.172,217.394A3.174,3.174,0,0,1,158,214.22a9.213,9.213,0,0,1,1.129-4.594,3.588,3.588,0,0,0,0-3.51,9.912,9.912,0,0,1,0-9.188,3.1,3.1,0,0,0,.458-1.754,3.174,3.174,0,0,1,6.348,0,9.213,9.213,0,0,1-1.129,4.594,3.588,3.588,0,0,0,0,3.509,9.912,9.912,0,0,1,0,9.188,3.1,3.1,0,0,0-.458,1.755A3.174,3.174,0,0,1,161.172,217.394Z" transform="translate(-80.829 -101.342)" fill="#fbb540"/>
    <path id="Path_55" data-name="Path 55" d="M383.729,27.173a6.319,6.319,0,0,0-4.361,1.743,9.523,9.523,0,0,0-16.671,0,6.348,6.348,0,1,0,0,9.21,9.523,9.523,0,0,0,16.671,0,6.346,6.346,0,1,0,4.361-10.954Z" transform="translate(-197.843)" fill="#eaeae8"/>
  </g>
</svg>
