<svg xmlns="http://www.w3.org/2000/svg" width="184.45" height="184.45" viewBox="0 0 184.45 184.45">
  <g id="ic-read" transform="translate(-16 -16)">
    <path id="Path_1" data-name="Path 1" d="M330.758,478.253H315.126a3.126,3.126,0,0,1,0-6.253h15.631a3.126,3.126,0,0,1,0,6.253Z" transform="translate(-180.328 -277.802)" fill="#ea9d2d"/>
    <path id="Path_2" data-name="Path 2" d="M332.505,398.253h-9.379a3.126,3.126,0,0,1,0-6.253h9.379a3.126,3.126,0,1,1,0,6.253Z" transform="translate(-185.202 -229.065)" fill="#ea9d2d"/>
    <path id="Path_3" data-name="Path 3" d="M280,248h38.4a7.816,7.816,0,0,1,4.142,1.188l23.109,14.443-3.126,12.505-22.292-12.642-7.408-4.845Z" transform="translate(-160.833 -141.338)" fill="#55300b"/>
    <path id="Path_4" data-name="Path 4" d="M348.838,147.233,356.326,136l9.379,15.631Z" transform="translate(-202.77 -73.106)" fill="#027e2a"/>
    <path id="Path_5" data-name="Path 5" d="M308.505,152l25.01,9.379L321.01,189.515,296,180.136Z" transform="translate(-170.58 -82.853)" fill="#02a437"/>
    <path id="Path_6" data-name="Path 6" d="M178.758,192,160,232.642h12.505l9.379-18.758Z" transform="translate(-87.727 -107.222)" fill="#fdc9a6"/>
    <path id="Path_7" data-name="Path 7" d="M192.914,199.9l12.148,9.111,6.253-9.379L201.936,184l-3.126,3.126Z" transform="translate(-107.779 -102.348)" fill="#2cbff4"/>
    <path id="Path_8" data-name="Path 8" d="M112,296h81.283a18.758,18.758,0,1,1,0,37.515H112Z" transform="translate(-58.485 -170.58)" fill="#d32b39"/>
    <rect id="Rectangle_79" data-name="Rectangle 79" width="25.187" height="31.292" rx="12.593" transform="translate(90.671 44.114)" fill="#fdc9a6"/>
    <path id="Path_9" data-name="Path 9" d="M224.95,72.024H206.192l-6.253,6.253-4.545-11.363A8.739,8.739,0,0,1,206.27,55.377l3.048,1.016,2.452-4.9a9.236,9.236,0,0,1,17.142,6.668Z" transform="translate(-108.909 -18.509)" fill="#683b0d"/>
    <path id="Path_10" data-name="Path 10" d="M214.253,168,208,177.379v13.048a10.942,10.942,0,0,0,1.155,4.893l11.35,22.7,15.631-18.758-6.253-9.379L226.758,168Z" transform="translate(-116.969 -92.601)" fill="#0296e5"/>
    <path id="Path_11" data-name="Path 11" d="M232,204.505l35.3,8.146a6.966,6.966,0,0,0,3.4-13.509L244.505,192Z" transform="translate(-131.591 -107.222)" fill="#fdc9a6"/>
    <path id="Path_12" data-name="Path 12" d="M238.076,172.505l-1.691-6.761a7.582,7.582,0,1,0-14.712,3.677l3.9,15.589Z" transform="translate(-125.161 -87.727)" fill="#2cbff4"/>
    <path id="Path_13" data-name="Path 13" d="M255.631,248l33.817,8.454a7.816,7.816,0,0,1,5.247,4.408l10.957,24.653-9.379,9.379-12.505-28.136H240Z" transform="translate(-136.464 -141.338)" fill="#683b0d"/>
    <path id="Path_14" data-name="Path 14" d="M443.126,283.126,449.379,280l9.379,3.126-6.253,15.631L440,295.631Z" transform="translate(-258.307 -160.833)" fill="#cbcbcb"/>
    <path id="Path_15" data-name="Path 15" d="M393.379,344l12.505,6.253v9.379l-18.758,3.126L384,353.379Z" transform="translate(-224.191 -199.823)" fill="#cbcbcb"/>
    <path id="Path_16" data-name="Path 16" d="M91.505,302.253H82.126a3.126,3.126,0,0,1,0-6.253h9.379a3.126,3.126,0,0,1,0,6.253Z" transform="translate(-38.381 -170.58)" fill="#d32b39"/>
    <path id="Path_17" data-name="Path 17" d="M98.758,390.253H83.126a3.126,3.126,0,0,1,0-6.253H98.758a3.126,3.126,0,0,1,0,6.253Z" transform="translate(-38.99 -224.191)" fill="#d32b39"/>
    <path id="Path_18" data-name="Path 18" d="M112,328h81.283a6.253,6.253,0,0,1,0,12.505H112Z" transform="translate(-58.485 -190.075)" fill="#cbcbcb"/>
    <path id="Path_19" data-name="Path 19" d="M0,0H81.283a18.758,18.758,0,1,1,0,37.515H0Z" transform="translate(141.051 200.45) rotate(180)" fill="#ea9d2d"/>
    <path id="Path_20" data-name="Path 20" d="M199.536,424H118.253a6.253,6.253,0,1,0,0,12.505h81.283Z" transform="translate(-58.485 -248.56)" fill="#cbcbcb"/>
    <path id="Path_21" data-name="Path 21" d="M92.673,112.105l-.537.537H73.379l-.537-.537A30.19,30.19,0,0,1,64,90.758a18.758,18.758,0,0,1,37.515,0,30.19,30.19,0,0,1-8.842,21.347Z" transform="translate(-29.242 -34.116)" fill="#ea9d2d"/>
    <path id="Path_22" data-name="Path 22" d="M105.842,112.915a3.126,3.126,0,0,0-4.421,0l-4.042,4.042-4.042-4.042a3.126,3.126,0,0,0-4.421,4.421l5.337,5.337V137.01a3.126,3.126,0,0,0,6.253,0V122.674l5.337-5.337a3.126,3.126,0,0,0,0-4.421Z" transform="translate(-43.863 -58.485)" fill="#c38325"/>
    <g id="Group_2" data-name="Group 2" transform="translate(16 16)">
      <path id="Path_23" data-name="Path 23" d="M107.126,28.505A3.126,3.126,0,0,1,104,25.379V19.126a3.126,3.126,0,1,1,6.253,0v6.253A3.126,3.126,0,0,1,107.126,28.505Z" transform="translate(-69.611 -16)" fill="#fbb540"/>
      <path id="Path_24" data-name="Path 24" d="M66.255,39.457a3.126,3.126,0,0,1-2.71-1.563L60.418,32.48a3.126,3.126,0,1,1,5.415-3.126l3.126,5.415a3.126,3.126,0,0,1-2.7,4.689Z" transform="translate(-42.805 -23.182)" fill="#fbb540"/>
      <path id="Path_25" data-name="Path 25" d="M36.327,69.377a3.109,3.109,0,0,1-1.56-.419l-5.415-3.126a3.126,3.126,0,1,1,3.126-5.415l5.415,3.126a3.126,3.126,0,0,1-1.566,5.834Z" transform="translate(-23.182 -42.804)" fill="#fbb540"/>
      <path id="Path_26" data-name="Path 26" d="M25.379,110.253H19.126a3.126,3.126,0,1,1,0-6.253h6.253a3.126,3.126,0,1,1,0,6.253Z" transform="translate(-16 -69.611)" fill="#fbb540"/>
      <path id="Path_27" data-name="Path 27" d="M30.92,149.377a3.126,3.126,0,0,1-1.566-5.834l5.415-3.126a3.126,3.126,0,1,1,3.126,5.415l-5.415,3.126A3.114,3.114,0,0,1,30.92,149.377Z" transform="translate(-23.183 -91.541)" fill="#fbb540"/>
      <path id="Path_28" data-name="Path 28" d="M143.123,39.457a3.126,3.126,0,0,1-2.7-4.689l3.126-5.415a3.126,3.126,0,1,1,5.415,3.126l-3.126,5.415A3.126,3.126,0,0,1,143.123,39.457Z" transform="translate(-91.543 -23.182)" fill="#fbb540"/>
    </g>
    <path id="Path_29" data-name="Path 29" d="M106.758,188.505l-6.253,6.253H94.253L88,188.505V176h18.758Z" transform="translate(-43.864 -97.475)" fill="#cbcbcb"/>
    <path id="Path_30" data-name="Path 30" d="M88,208h18.758l-6.253,6.253H94.253Z" transform="translate(-43.864 -116.969)" fill="#eaeae8"/>
  </g>
</svg>
