<svg xmlns="http://www.w3.org/2000/svg" width="196.445" height="173.628" viewBox="0 0 196.445 173.628">
  <g id="ic-sport" transform="translate(-33 -53.848)">
    <path id="Path_56" data-name="Path 56" d="M39.476,208v17.27L33,239.086l9.93,6.908,6.908-17.27V208Z" transform="translate(0 -87.597)" fill="#fdc9a6"/>
    <path id="Path_57" data-name="Path 57" d="M77.994,136l3.059.765a26.769,26.769,0,0,1,16.461,12.2l4.657,7.762-13.816,6.908V187.81H53.816V167.086H40v-6.055a26.768,26.768,0,0,1,16.827-24.854L57.27,136Z" transform="translate(-3.978 -46.683)" fill="#e82f3e"/>
    <path id="Path_58" data-name="Path 58" d="M291.632,184l-13.816,17.27L264,208.178l3.454,10.362h6.908l17.27-12.952Z" transform="translate(-131.266 -73.959)" fill="#fdc9a6"/>
    <path id="Path_59" data-name="Path 59" d="M332.109,128l12.5,2.084a22.451,22.451,0,0,1,13.557,7.771L370.1,152.178,359.741,162.54l-6.908-6.908v20.724H325.2V148.724l-1.306-2.612a7.771,7.771,0,0,1,.734-8.138Z" transform="translate(-164.835 -42.137)" fill="#0296e5"/>
    <g id="Group_4" data-name="Group 4" transform="translate(53.292 62.415)">
      <path id="Path_60" data-name="Path 60" d="M296,95.206v9.633a10.362,10.362,0,0,0,20.724,0V95.206a10.362,10.362,0,0,0-20.724,0Z" transform="translate(-202.742 -80.028)" fill="#fdc9a6"/>
      <path id="Path_61" data-name="Path 61" d="M80,84.051v9.633a10.362,10.362,0,0,0,20.724,0V84.051a10.362,10.362,0,0,0-20.724,0Z" transform="translate(-80 -73.689)" fill="#fdc9a6"/>
      <path id="Path_62" data-name="Path 62" d="M408,194.362l10.362,17.27v6.908l6.908,3.454,6.908-6.908L418.362,184Z" transform="translate(-266.387 -136.373)" fill="#fdc9a6"/>
    </g>
    <path id="Path_63" data-name="Path 63" d="M318.908,240,312,277.994h20.724V267.632l3.454,10.362h17.27V256.677A23.585,23.585,0,0,0,346.54,240Z" transform="translate(-158.542 -105.781)" fill="#026ca2"/>
    <path id="Path_64" data-name="Path 64" d="M315.69,328,312.5,343.955a4.321,4.321,0,0,0,.265,2.547l9.834,22.946h13.816L326.052,345.27,331.664,328Z" transform="translate(-158.778 -155.787)" fill="#fdc9a6"/>
    <path id="Path_65" data-name="Path 65" d="M402.54,348.724H375.111a4.317,4.317,0,0,1-4.259-3.608L368,328h16.838l.432,6.908h17.27Z" transform="translate(-190.364 -155.787)" fill="#fdc9a6"/>
    <path id="Path_66" data-name="Path 66" d="M53.816,256,40,283.632l3.454,1.151,17.27,5.756,6.908-13.816,7.155,17.889,20.477-4.073L88.356,256Z" transform="translate(-3.978 -114.873)" fill="#0bafea"/>
    <path id="Path_67" data-name="Path 67" d="M92.724,402.362l-10.362,17.27H72v-17.27L82.362,392Z" transform="translate(-22.162 -192.155)" fill="#cbcbcb"/>
    <path id="Path_68" data-name="Path 68" d="M56.978,328.423,50.07,338.785,60.432,352.6,50.07,362.963l-15.858-22.2a4.317,4.317,0,0,1-.455-4.21l5.951-13.885Z" transform="translate(-0.232 -152.757)" fill="#fdc9a6"/>
    <path id="Path_69" data-name="Path 69" d="M159.086,367.086,145.27,336,128,339.454l20.724,31.086Z" transform="translate(-53.984 -160.333)" fill="#fdc9a6"/>
    <path id="Path_70" data-name="Path 70" d="M176,411.454v17.27h17.27L186.362,408Z" transform="translate(-81.26 -201.247)" fill="#cbcbcb"/>
    <path id="Path_71" data-name="Path 71" d="M165.816,184l6.908,10.362,6.908,24.178-10.362,6.908-6.908-6.908,3.454-6.908-3.454-10.362L152,190.908Z" transform="translate(-67.622 -73.959)" fill="#fdc9a6"/>
    <path id="Path_72" data-name="Path 72" d="M322.362,424,312,430.908v6.908h24.178V424Z" transform="translate(-158.542 -210.339)" fill="#cbcbcb"/>
    <path id="Path_73" data-name="Path 73" d="M448,357.816l6.908,10.362,10.362-.832V344H448Z" transform="translate(-235.824 -164.879)" fill="#cbcbcb"/>
    <path id="Path_74" data-name="Path 74" d="M310.384,77.593H289.66l-4.308-12.075a8.734,8.734,0,0,1,15.493-7.779l2.631,3.947h4.805a7.709,7.709,0,0,1,4.826,13.721Z" transform="translate(-143.11 0)" fill="#683b0d"/>
    <path id="Path_75" data-name="Path 75" d="M100.724,84.051H80v-.094A10.268,10.268,0,0,1,90.268,73.689h.189a10.268,10.268,0,0,1,10.267,10.362Z" transform="translate(-26.708 -11.274)" fill="#683b0d"/>
    <circle id="Ellipse_4" data-name="Ellipse 4" cx="20.724" cy="20.724" r="20.724" transform="translate(101.216 186.029)" fill="#fbb540"/>
    <path id="Path_76" data-name="Path 76" d="M232.448,382.576a20.834,20.834,0,0,0-.29-3.467L217.8,379.1l7.37-12.283a20.567,20.567,0,0,0-5.928-3.553l-7.538,12.573-7.538-12.56a20.547,20.547,0,0,0-5.919,3.562l7.348,12.244-14.3-.017a20.927,20.927,0,0,0-.022,6.908l14.334.022-7.387,12.3a20.55,20.55,0,0,0,5.915,3.571l7.569-12.607,7.573,12.62a20.548,20.548,0,0,0,5.919-3.562L217.812,386l14.351.022a21.133,21.133,0,0,0,.285-3.45Z" transform="translate(-89.784 -175.824)" fill="#d18d28"/>
    <path id="Path_77" data-name="Path 77" d="M231.027,388.4h-9.77l-4.884,8.461,4.884,8.461h9.77l4.884-8.461Z" transform="translate(-104.202 -190.112)" fill="#d18d28"/>
  </g>
</svg>
