<?xml version="1.0" encoding="utf-8"?>
<!-- Generator: Adobe Illustrator 15.1.0, SVG Export Plug-In . SVG Version: 6.00 Build 0)  -->
<!DOCTYPE svg PUBLIC "-//W3C//DTD SVG 1.1//EN" "http://www.w3.org/Graphics/SVG/1.1/DTD/svg11.dtd">
<svg version="1.1" id="Layer_1" xmlns="http://www.w3.org/2000/svg" xmlns:xlink="http://www.w3.org/1999/xlink" x="0px" y="0px"
	 width="223px" height="152px" viewBox="0 0 223 152" enable-background="new 0 0 223 152" xml:space="preserve">
<polygon fill="#00386D" points="-734.567,-1836.628 -647.403,-1836.628 -647.617,-1766.041 -635.981,-1766.058 -635.981,-1914.026 
	-647.617,-1914.041 -647.403,-1846.167 -734.567,-1846.167 -734.617,-1914.021 -759.298,-1914.021 -759.331,-1766.101 
	-734.617,-1766.101 "/>
<g>
	<defs>
		<rect id="SVGID_1_" x="-1283" y="-2129.792" width="2791.431" height="4409.792"/>
	</defs>
	<clipPath id="SVGID_2_">
		<use xlink:href="#SVGID_1_"  overflow="visible"/>
	</clipPath>
	<path clip-path="url(#SVGID_2_)" fill="#00386D" d="M-843.451-1767.907c5.401,1.523,11.519,1.866,18.32,1.866
		c3.253,0,12.657-0.454,19.551-2.828c6.39-2.184,10.762-4.872,15-8.558c4.243-3.675,7.272-8,9.429-12.958
		c2.165-4.963,3.319-10.272,3.319-15.873c0-4.959-1.218-9.439-3.499-13.479c-2.282-4.038-5.325-7.762-9.117-11.163
		c-3.802-3.4-7.168-6.541-11.974-9.418c-4.801-2.885-9.7-5.651-14.701-8.288c-4.999-2.641-9.896-5.237-14.703-7.8
		c-4.804-2.554-9.102-5.22-12.901-7.984c-3.804-2.76-6.848-5.677-9.121-8.758c-2.285-3.085-3.429-6.503-3.429-10.265
		c0-2.639,0.565-5.24,1.685-7.804c1.112-2.561,2.798-4.862,5.042-6.904c2.233-2.035,5.039-3.677,8.404-4.92
		c3.36-1.238,7.28-1.856,11.762-1.856c5.037,0,9.563,0.701,13.56,2.102c4,1.399,7.543,3.375,10.628,5.936
		c3.079,2.564,5.715,5.642,7.917,9.245c2.201,3.596,4.018,7.604,5.465,12.005l12.242-5.644c-3.44-10.642-9.063-18.785-16.862-24.429
		c-7.805-5.636-18.405-8.373-31.847-8.373c-7.452,0-14.069,0.875-19.824,2.795c-5.77,1.918-10.932,4.601-14.888,8.038
		c-3.96,3.448-6.96,7.483-9.002,12.125c-2.042,4.641-3.47,9.686-3.47,15.129c0,5.44,1.532,10.241,3.764,14.403
		c2.243,4.163,5.18,7.918,8.826,11.281c3.641,3.36,8.094,6.421,12.784,9.178c4.683,2.764,9.485,5.406,14.402,7.926
		c4.923,2.515,9.726,5.021,14.408,7.503c4.684,2.479,8.833,5.143,12.488,7.978c3.637,2.846,6.577,5.97,8.812,9.366
		c2.24,3.402,3.364,7.259,3.364,11.587c0,3.597-0.817,6.778-2.457,9.544c-1.649,2.756-3.807,5.078-6.484,6.957
		c-2.689,1.886-5.744,3.297-9.189,4.264c-3.435,0.952-6.92,1.443-10.437,1.443c-9.365,0-17.507-2.584-24.422-7.746
		c-6.93-5.164-11.875-12.419-14.827-21.782l-10.753,5.48c1.927,5.276,4.882,9.779,7.805,13.898
		c2.919,4.125,6.419,7.606,10.498,10.435C-853.795-1771.401-848.853-1769.426-843.451-1767.907"/>
	<polygon clip-path="url(#SVGID_2_)" fill="#00386D" points="-1022.105,-1944.851 -1037.24,-1918.625 -1037.25,-1918.625 
		-1027.471,-1901.694 -1002.552,-1944.851 -1027.471,-1988.007 -1037.25,-1971.077 -1037.243,-1971.077 	"/>
	<polygon clip-path="url(#SVGID_2_)" fill="#780D80" points="-1040.996,-1924.672 -1029.354,-1944.851 -1040.996,-1965.024 
		-1041.002,-1965.024 -1052.649,-1944.851 -1041.002,-1924.672 	"/>
	<path clip-path="url(#SVGID_2_)" fill="#00386D" d="M-894.83-1914.276h-11.033v94.418c0,6.247-1.052,12.108-3.136,17.612
		c-2.1,5.494-5.094,10.294-8.984,14.402c-3.903,4.102-8.596,7.462-14.178,9.841c-5.574,2.383-9.47,3.46-16.44,3.46
		c-6.891,0-12.952-1.201-18.531-3.581c-5.579-2.377-10.354-5.618-14.339-9.72c-3.976-4.108-7.028-8.908-9.162-14.402
		c-2.14-5.504-2.976-11.366-2.976-17.612v-26.799h-0.012v-67.416c-18.626,0-24.72,14.362-24.702,21.705c0.02,8.66,0,66.387,0,66.387
		c0,13.188,1.358,20.304,4.063,26.995c2.709,6.683,6.664,12.537,11.874,17.544c5.203,5.007,11.689,8.966,19.443,11.876
		c7.751,2.914,16.499,3.511,26.595,3.511c11.314,0,18.567-0.597,26.609-3.511c8.039-2.91,14.622-6.849,19.746-11.819
		c5.132-4.963,8.909-10.743,11.323-17.357c2.421-6.605,3.827-13.643,3.827-21.116L-894.83-1914.276z"/>
	<path clip-path="url(#SVGID_2_)" fill="#00386D" d="M-1061.432-1766.055h24.702v-101.281h-0.009c0-13.587,0-21.255,0.009-24.812
		c0.011-7.339-6.077-21.904-24.707-21.904l0.005,46.716V-1766.055z"/>
	<polygon clip-path="url(#SVGID_2_)" fill="#00386D" points="-1058.847,-1734.637 -1058.525,-1734.637 -1058.525,-1734.958 
		-1058.525,-1752.745 -1058.525,-1753.068 -1058.847,-1753.068 -1061.471,-1753.068 -1061.788,-1753.068 -1061.788,-1752.745 
		-1061.788,-1734.958 -1061.788,-1734.637 -1061.471,-1734.637 	"/>
	<path clip-path="url(#SVGID_2_)" fill="#00386D" d="M-1043.901-1748.413L-1043.901-1748.413h-0.006
		c-1.161,0.021-2.232,0.313-3.137,0.862v-0.329v-0.319h-0.323h-2.504h-0.32v0.319v12.922v0.321h0.32h2.53h0.32v-0.321v-7.058
		c0-1.896,1.296-3.229,3.151-3.248c2.017,0,3.087,1.049,3.087,3.035v7.271v0.321h0.32h2.525h0.325v-0.321v-7.292
		C-1037.613-1745.994-1040.082-1748.413-1043.901-1748.413"/>
	<path clip-path="url(#SVGID_2_)" fill="#00386D" d="M-1023.998-1745.286c1.184,0,2.045,0.161,2.978,0.976l0.495,0.44l0.233,0.206
		l0.212-0.23l1.635-1.741l0.221-0.232l-0.232-0.217l-0.502-0.472c-1.296-1.214-3.018-1.83-5.123-1.83
		c-1.863,0-3.495,0.568-4.474,1.556c-0.731,0.735-1.095,1.654-1.082,2.722c0.035,3.233,3.249,3.768,5.378,4.123l0.154,0.025
		c2.195,0.353,2.827,0.545,2.813,1.139c-0.044,1.127-1.857,1.246-2.636,1.246c-1.485,0-2.775-0.577-3.45-1.548l-0.439-0.641
		l-0.208-0.293l-0.273,0.24l-1.866,1.665l-0.207,0.181l0.151,0.234l0.321,0.494c1.142,1.749,3.366,2.793,5.949,2.793
		c1.334,0,5.697-0.305,5.804-4.228c0.147-3.368-3.029-3.895-5.134-4.245l-0.665-0.108c-1.856-0.331-2.55-0.641-2.568-1.144
		c-0.006-0.193,0.049-0.332,0.187-0.474C-1025.944-1745.042-1025.052-1745.286-1023.998-1745.286"/>
	<path clip-path="url(#SVGID_2_)" fill="#00386D" d="M-1001.303-1735.445l0.274-0.134l-0.121-0.283l-0.935-2.207l-0.132-0.306
		l-0.304,0.142l-0.648,0.308c-0.499,0.241-0.98,0.376-1.36,0.376c-0.737,0-1.143,0-1.143-1.688v-5.98h3.647h0.323v-0.32v-2.343
		v-0.319h-0.323h-3.647v-3.277v-0.354l-0.353,0.035l-2.509,0.262l-0.284,0.03v0.285v3.019h-2.163h-0.32v0.319v2.343v0.32h0.32h2.163
		v5.98c0,3.118,1.481,4.765,4.289,4.765c0.817,0,1.672-0.226,2.634-0.692L-1001.303-1735.445z"/>
	<polygon clip-path="url(#SVGID_2_)" fill="#00386D" points="-993.497,-1748.248 -993.817,-1748.248 -993.817,-1747.926 
		-993.817,-1734.958 -993.817,-1734.637 -993.497,-1734.637 -990.968,-1734.637 -990.646,-1734.637 -990.646,-1734.958 
		-990.646,-1747.926 -990.646,-1748.248 -990.968,-1748.248 	"/>
	<path clip-path="url(#SVGID_2_)" fill="#00386D" d="M-992.207-1753.333c-0.963,0-1.941,0.648-1.941,1.888
		c0,1.25,1.001,1.926,1.941,1.926c0.939,0,1.936-0.676,1.936-1.926C-990.271-1752.685-991.245-1753.333-992.207-1753.333"/>
	<path clip-path="url(#SVGID_2_)" fill="#00386D" d="M-977.437-1751.83l-0.353,0.035l-2.506,0.262l-0.287,0.03v0.284v3.02h-2.162
		h-0.322v0.32v2.342v0.32h0.322h2.162v5.98c0,3.117,1.484,4.764,4.288,4.764c0.81,0,1.674-0.225,2.636-0.691l0.592-0.281
		l0.274-0.135l-0.118-0.283l-0.94-2.206l-0.135-0.305l-0.301,0.141l-0.643,0.308c-0.5,0.241-0.984,0.376-1.365,0.376
		c-0.737,0-1.142,0-1.142-1.688v-5.98h3.647h0.322v-0.32v-2.342v-0.32h-0.322h-3.647v-3.276V-1751.83z"/>
	<path clip-path="url(#SVGID_2_)" fill="#00386D" d="M-955.877-1748.224h-0.322v0.322v7.184c0,1.85-1.264,3.104-3.146,3.124
		c-2.049,0-3.089-0.978-3.089-2.907v-7.401v-0.322h-0.322h-2.53h-0.321v0.322v7.42c0,3.666,2.465,6.031,6.284,6.031
		c1.172-0.018,2.247-0.311,3.146-0.855v0.348v0.321h0.321h2.504h0.324v-0.321v-12.944v-0.322h-0.324H-955.877z"/>
	<path clip-path="url(#SVGID_2_)" fill="#00386D" d="M-938.444-1745.217c1.076,0,2.089,0.401,2.787,1.099l0.479,0.479l0.222,0.221
		l0.223-0.22l1.751-1.692l0.238-0.229l-0.238-0.23l-0.506-0.492c-1.337-1.31-3.099-2.035-4.956-2.035
		c-4.126,0-7.011,2.863-7.011,6.962c0,3.96,2.952,6.837,7.011,6.837c1.885,0,3.647-0.73,4.971-2.046l0.483-0.488l0.224-0.226
		l-0.227-0.229l-1.75-1.747l-0.223-0.225l-0.231,0.225l-0.484,0.486c-0.729,0.731-1.734,1.147-2.763,1.147
		c-0.905,0-3.862-0.27-3.862-3.734C-942.306-1744.021-940.363-1745.217-938.444-1745.217"/>
	<polygon clip-path="url(#SVGID_2_)" fill="#00386D" points="-925.285,-1748.248 -925.605,-1748.248 -925.605,-1747.926 
		-925.605,-1734.958 -925.605,-1734.637 -925.285,-1734.637 -922.756,-1734.637 -922.438,-1734.637 -922.438,-1734.958 
		-922.438,-1747.926 -922.438,-1748.248 -922.756,-1748.248 	"/>
	<path clip-path="url(#SVGID_2_)" fill="#00386D" d="M-924-1753.35c-0.962,0-1.937,0.651-1.937,1.884c0,1.256,1,1.93,1.937,1.93
		c0.943,0,1.939-0.674,1.939-1.93C-922.061-1752.699-923.033-1753.35-924-1753.35"/>
	<polygon clip-path="url(#SVGID_2_)" fill="#00386D" points="-906.432,-1749.505 -906.333,-1749.63 -904.007,-1752.641 
		-903.865,-1752.867 -903.819,-1752.946 -903.819,-1753.036 -903.819,-1753.94 -903.819,-1754.26 -904.134,-1754.26 
		-906.688,-1754.26 -906.861,-1754.26 -906.955,-1754.111 -908.969,-1750.98 -909.016,-1750.902 -909.016,-1750.806 
		-909.016,-1749.828 -909.016,-1749.505 -908.7,-1749.505 -906.59,-1749.505 	"/>
	<path clip-path="url(#SVGID_2_)" fill="#00386D" d="M-914.196-1741.33c0,4.038,2.856,6.858,6.941,6.858
		c4.086,0,6.937-2.82,6.937-6.858c0-4.104-2.915-7.083-6.937-7.083C-911.275-1748.413-914.196-1745.435-914.196-1741.33
		 M-907.255-1745.312c2.197,0,3.79,1.674,3.79,3.982c0,2.219-1.523,3.71-3.79,3.71s-3.793-1.491-3.793-3.71
		C-911.048-1743.638-909.456-1745.312-907.255-1745.312"/>
	<path clip-path="url(#SVGID_2_)" fill="#00386D" d="M-889.585-1734.637h0.32v-0.321v-7.058c0-1.895,1.294-3.229,3.151-3.248
		c2.016,0,3.086,1.049,3.086,3.035v7.271v0.321h0.32h2.532h0.318v-0.321v-7.292c0-3.744-2.467-6.163-6.285-6.163h-0.005h-0.002
		c-1.16,0.021-2.234,0.313-3.14,0.862v-0.329v-0.32h-0.317h-2.506h-0.319v0.32v12.922v0.321h0.319H-889.585z"/>
	<path clip-path="url(#SVGID_2_)" fill="#00386D" d="M-854.415-1753.069h-0.323h-2.622h-0.323v0.324v10.967
		c0,5.094,3.686,7.372,7.337,7.372c3.537,0,7.346-2.306,7.346-7.372v-10.967v-0.324h-0.321h-2.622h-0.319v0.324v10.967
		c0,2.895-2.055,4.19-4.084,4.19c-2.026,0-4.069-1.295-4.069-4.19v-10.967V-1753.069z"/>
	<path clip-path="url(#SVGID_2_)" fill="#00386D" d="M-828.472-1748.413L-828.472-1748.413h-0.005
		c-1.163,0.021-2.234,0.313-3.137,0.862v-0.329v-0.319h-0.32h-2.508h-0.32v0.319v12.922v0.321h0.32h2.532h0.322v-0.321v-7.058
		c0-1.896,1.291-3.229,3.148-3.248c2.017,0,3.086,1.049,3.086,3.035v7.271v0.321h0.319h2.53h0.32v-0.321v-7.292
		C-822.185-1745.994-824.65-1748.413-828.472-1748.413"/>
	<polygon clip-path="url(#SVGID_2_)" fill="#00386D" points="-813.625,-1748.248 -813.946,-1748.248 -813.946,-1747.926 
		-813.946,-1734.958 -813.946,-1734.637 -813.625,-1734.637 -811.096,-1734.637 -810.778,-1734.637 -810.778,-1734.958 
		-810.778,-1747.926 -810.778,-1748.248 -811.096,-1748.248 	"/>
	<path clip-path="url(#SVGID_2_)" fill="#00386D" d="M-812.335-1753.363c-0.963,0-1.942,0.648-1.942,1.887
		c0,1.253,1.001,1.927,1.942,1.927c0.939,0,1.936-0.674,1.936-1.927C-810.399-1752.715-811.37-1753.363-812.335-1753.363"/>
	<polygon clip-path="url(#SVGID_2_)" fill="#00386D" points="-789.781,-1748.199 -790.263,-1748.199 -793.03,-1748.199 
		-793.243,-1748.199 -793.326,-1748.002 -796.826,-1739.615 -800.325,-1748.002 -800.406,-1748.199 -800.621,-1748.199 
		-803.387,-1748.199 -803.871,-1748.199 -803.685,-1747.756 -798.214,-1734.833 -798.131,-1734.636 -797.92,-1734.636 
		-795.73,-1734.636 -795.521,-1734.636 -795.438,-1734.833 -789.967,-1747.756 	"/>
	<path clip-path="url(#SVGID_2_)" fill="#00386D" d="M-759.046-1734.637h0.321v-0.321v-7.366c0-1.605,1.252-2.874,2.85-2.894
		c0.541,0,1.031,0.132,1.456,0.396l0.616,0.376l0.286,0.175l0.163-0.296l1.179-2.149l0.147-0.271l-0.261-0.156l-0.563-0.345
		c-0.91-0.549-1.886-0.829-2.909-0.829h-0.118c-1.088,0-2.088,0.256-2.925,0.743l-0.009-0.314l-0.004-0.313h-0.313h-2.446h-0.319
		v0.32v12.922v0.321h0.319H-759.046z"/>
	<path clip-path="url(#SVGID_2_)" fill="#00386D" d="M-739.955-1737.575c-1.484,0-2.772-0.578-3.451-1.549l-0.44-0.64l-0.209-0.294
		l-0.267,0.24l-1.87,1.665l-0.209,0.182l0.153,0.234l0.322,0.494c1.141,1.749,3.365,2.793,5.95,2.793
		c1.334,0,5.695-0.305,5.801-4.227c0.149-3.369-3.029-3.896-5.134-4.246l-0.664-0.108c-1.856-0.332-2.556-0.641-2.567-1.143
		c-0.007-0.194,0.047-0.333,0.187-0.475c0.38-0.394,1.275-0.637,2.326-0.637c1.186,0,2.05,0.16,2.978,0.975l0.497,0.441l0.232,0.205
		l0.216-0.23l1.633-1.741l0.216-0.232l-0.231-0.218l-0.499-0.471c-1.297-1.214-3.016-1.831-5.123-1.831
		c-1.865,0-3.493,0.567-4.475,1.556c-0.729,0.736-1.096,1.654-1.08,2.722c0.032,3.234,3.249,3.77,5.378,4.123l0.15,0.026
		c2.196,0.353,2.83,0.544,2.817,1.139C-737.36-1737.695-739.175-1737.575-739.955-1737.575"/>
	<polygon clip-path="url(#SVGID_2_)" fill="#00386D" points="-726.064,-1748.248 -726.386,-1748.248 -726.386,-1747.926 
		-726.386,-1734.958 -726.386,-1734.637 -726.064,-1734.637 -723.533,-1734.637 -723.213,-1734.637 -723.213,-1734.958 
		-723.213,-1747.926 -723.213,-1748.248 -723.533,-1748.248 	"/>
	<path clip-path="url(#SVGID_2_)" fill="#00386D" d="M-724.774-1753.363c-0.963,0-1.94,0.648-1.94,1.887c0,1.253,1,1.927,1.94,1.927
		c0.943,0,1.939-0.674,1.939-1.927C-722.835-1752.715-723.812-1753.363-724.774-1753.363"/>
	<path clip-path="url(#SVGID_2_)" fill="#00386D" d="M-713.153-1739.236c0,3.117,1.485,4.764,4.293,4.764
		c0.811,0,1.675-0.225,2.63-0.692l0.592-0.28l0.276-0.135l-0.12-0.283l-0.938-2.207l-0.13-0.305l-0.301,0.142l-0.65,0.308
		c-0.499,0.241-0.98,0.375-1.359,0.375c-0.738,0-1.147,0-1.147-1.687v-5.98h3.65h0.319v-0.321v-2.343v-0.319h-0.319h-3.65v-3.277
		v-0.353l-0.351,0.035l-2.507,0.262l-0.288,0.03v0.284v3.019h-2.161h-0.321v0.319v2.343v0.321h0.321h2.161V-1739.236z"/>
	<path clip-path="url(#SVGID_2_)" fill="#00386D" d="M-688.084-1734.958v0.321h0.321h2.533h0.316v-0.321v-12.922v-0.319h-0.316
		h-2.533h-0.321v0.319v0.653c-1.062-0.729-2.352-1.114-3.769-1.114c-3.952,0-6.934,3.004-6.934,6.987
		c0,3.936,2.982,6.903,6.934,6.903c1.403,0,2.692-0.396,3.769-1.153V-1734.958z M-688.947-1738.785
		c-0.69,0.779-1.693,1.186-2.906,1.186c-2.215,0-3.766-1.541-3.766-3.755c0-2.237,1.585-3.863,3.766-3.863
		c2.661,0,3.869,2.006,3.869,3.876C-687.984-1740.352-688.298-1739.514-688.947-1738.785"/>
	<path clip-path="url(#SVGID_2_)" fill="#00386D" d="M-670.421-1748.316h-0.117c-1.093,0-2.089,0.256-2.925,0.743l-0.011-0.314
		l-0.002-0.312h-0.316h-2.442h-0.321v0.319v12.922v0.321h0.321h2.529h0.319v-0.321v-7.365c0-1.606,1.254-2.874,2.849-2.894
		c0.54,0,1.031,0.132,1.459,0.397l0.615,0.376l0.288,0.174l0.161-0.296l1.18-2.149l0.147-0.271l-0.261-0.156l-0.567-0.344
		C-668.422-1748.036-669.399-1748.316-670.421-1748.316"/>
	<path clip-path="url(#SVGID_2_)" fill="#00386D" d="M-658.456-1753.363c-0.962,0-1.938,0.648-1.938,1.887
		c0,1.253,1.001,1.927,1.938,1.927c0.94,0,1.94-0.674,1.94-1.927C-656.516-1752.715-657.491-1753.363-658.456-1753.363"/>
	<polygon clip-path="url(#SVGID_2_)" fill="#00386D" points="-659.745,-1748.248 -660.063,-1748.248 -660.063,-1747.926 
		-660.063,-1734.958 -660.063,-1734.637 -659.745,-1734.637 -657.213,-1734.637 -656.891,-1734.637 -656.891,-1734.958 
		-656.891,-1747.926 -656.891,-1748.248 -657.213,-1748.248 	"/>
	<path clip-path="url(#SVGID_2_)" fill="#00386D" d="M-638.852-1734.637h0.317h2.53h0.32v-0.321v-12.922v-0.319h-0.32h-2.53h-0.317
		v0.319v0.653c-1.067-0.729-2.356-1.114-3.769-1.114c-3.957,0-6.94,3.005-6.94,6.987c0,3.936,2.983,6.903,6.94,6.903
		c1.399,0,2.688-0.395,3.769-1.153v0.646V-1734.637z M-646.389-1741.354c0-2.237,1.583-3.863,3.768-3.863
		c2.656,0,3.865,2.007,3.865,3.876c0,0.989-0.315,1.827-0.964,2.556c-0.688,0.779-1.691,1.187-2.901,1.187
		C-644.841-1737.599-646.389-1739.14-646.389-1741.354"/>
	<path clip-path="url(#SVGID_2_)" fill="#00386D" d="M-1050.387-1713.929c-3.557-0.424-4.945-1.119-4.945-2.469
		c0-1.654,1.676-2.644,4.484-2.644c2.499,0,4.599,1.258,5.308,2.441l0.31,0.517l4.801-2.469l-0.279-0.565
		c-1.689-3.444-5.244-5.264-10.288-5.264c-5.078,0.037-10.206,2.479-10.206,7.842c0,6.078,5.195,7.513,10.285,8.121
		c4.612,0.494,5.143,1.947,5.143,3c0,2.844-3.857,3.068-5.044,3.068c-3.094,0-5.47-1.318-6.357-3.52l-0.266-0.654l-5.025,2.606
		l0.22,0.542c1.766,4.357,5.483,6.473,11.36,6.473c6.796,0,11.02-3.264,11.02-8.515
		C-1039.866-1711.758-1044.921-1713.255-1050.387-1713.929"/>
	<path clip-path="url(#SVGID_2_)" fill="#00386D" d="M-1025.734-1723.538l-11.662,25.996h6.45l2.12-4.659h12.094l2.082,4.659h6.491
		l-11.662-25.996H-1025.734z M-1026.388-1707.825l3.611-8.281l3.612,8.281H-1026.388z"/>
	<polygon clip-path="url(#SVGID_2_)" fill="#00386D" points="-998.336,-1723.538 -1004.278,-1723.538 -1004.278,-1697.542 
		-985.626,-1697.542 -985.626,-1703.131 -998.336,-1703.131 	"/>
	<path clip-path="url(#SVGID_2_)" fill="#00386D" d="M-971.812-1723.538l-11.664,25.996h6.451l2.117-4.659h12.094l2.084,4.659h6.49
		l-11.661-25.996H-971.812z M-972.466-1707.825l3.608-8.281l3.615,8.281H-972.466z"/>
	<polygon clip-path="url(#SVGID_2_)" fill="#00386D" points="-950.782,-1717.876 -939.164,-1717.876 -951.095,-1701.07 
		-951.095,-1697.542 -930.505,-1697.542 -930.505,-1703.237 -942.727,-1703.237 -930.505,-1720.505 -930.505,-1723.538 
		-950.782,-1723.538 	"/>
	<path clip-path="url(#SVGID_2_)" fill="#00386D" d="M-917.151-1723.538l-11.664,25.996h6.452l2.12-4.659h12.092l2.085,4.659h6.487
		l-11.662-25.996H-917.151z M-917.806-1707.825l3.61-8.281l3.612,8.281H-917.806z"/>
	<path clip-path="url(#SVGID_2_)" fill="#00386D" d="M-874.109-1714.705c0-4.224-2.987-8.795-9.54-8.833
		c-1.958,0-3.917-0.01-5.876-0.017c-1.959-0.009-3.92-0.019-5.88-0.019h-0.64v26.031h5.942v-8.261h3.55l7.202,8.261h6.476v-1.199
		l-6.949-7.835C-876.177-1707.71-874.109-1710.617-874.109-1714.705 M-883.649-1711.285h-6.454v-6.626h6.454
		c2.652,0,3.598,1.784,3.598,3.313C-880.051-1712.997-881-1711.285-883.649-1711.285"/>
	<polygon clip-path="url(#SVGID_2_)" fill="#00386D" points="-847.974,-1713.896 -853.911,-1723.538 -860.452,-1723.538 
		-860.452,-1722.489 -850.958,-1708.194 -850.958,-1697.542 -845.016,-1697.542 -845.016,-1708.186 -835.166,-1722.485 
		-835.166,-1723.538 -841.766,-1723.538 	"/>
	<polygon clip-path="url(#SVGID_2_)" fill="#00386D" points="-804.345,-1713.085 -815.208,-1713.085 -815.208,-1723.504 
		-821.149,-1723.504 -821.149,-1697.506 -815.208,-1697.506 -815.208,-1707.497 -804.345,-1707.497 -804.345,-1697.506 
		-798.438,-1697.506 -798.438,-1723.504 -804.345,-1723.504 	"/>
	<polygon clip-path="url(#SVGID_2_)" fill="#00386D" points="-792.375,-1697.542 -772.589,-1697.542 -772.589,-1703.41 
		-786.466,-1703.41 -786.466,-1707.71 -773.084,-1707.71 -773.084,-1713.332 -786.466,-1713.332 -786.466,-1717.737 
		-772.589,-1717.737 -772.589,-1723.538 -792.375,-1723.538 	"/>
	<path clip-path="url(#SVGID_2_)" fill="#00386D" d="M-745.26-1714.705c0-4.224-2.983-8.795-9.538-8.833
		c-1.958,0-3.918-0.01-5.877-0.017c-1.961-0.009-3.921-0.019-5.879-0.019h-0.64v26.031h5.94v-8.261h3.55l7.204,8.261h6.474v-1.199
		l-6.949-7.835C-747.327-1707.71-745.26-1710.617-745.26-1714.705 M-754.798-1711.285h-6.456v-6.626h6.456
		c2.658,0,3.596,1.784,3.596,3.313C-751.202-1712.997-752.145-1711.285-754.798-1711.285"/>
	<path clip-path="url(#SVGID_2_)" fill="#00386D" d="M-718.387-1714.705c0-4.224-2.987-8.795-9.538-8.833
		c-1.961,0-3.918-0.01-5.876-0.017c-1.96-0.009-3.921-0.019-5.883-0.019h-0.637v26.031h5.94v-8.261h3.552l7.201,8.261h6.477v-1.199
		l-6.95-7.835C-720.455-1707.71-718.387-1710.617-718.387-1714.705 M-727.925-1711.285h-6.456v-6.626h6.456
		c2.652,0,3.596,1.784,3.596,3.313C-724.329-1712.997-725.273-1711.285-727.925-1711.285"/>
	<polygon clip-path="url(#SVGID_2_)" fill="#00386D" points="-713.557,-1697.542 -693.776,-1697.542 -693.776,-1703.41 
		-707.648,-1703.41 -707.648,-1707.71 -694.267,-1707.71 -694.267,-1713.332 -707.648,-1713.332 -707.648,-1717.737 
		-693.776,-1717.737 -693.776,-1723.538 -713.557,-1723.538 	"/>
	<path clip-path="url(#SVGID_2_)" fill="#00386D" d="M-666.444-1714.705c0-4.224-2.985-8.795-9.534-8.833
		c-1.961,0-3.919-0.01-5.879-0.017c-1.959-0.009-3.92-0.019-5.88-0.019h-0.64v26.031h5.94v-8.261h3.551l7.202,8.261h6.476v-1.199
		l-6.949-7.835C-668.509-1707.71-666.444-1710.617-666.444-1714.705 M-675.978-1711.285h-6.459v-6.626h6.459
		c2.652,0,3.592,1.784,3.592,3.313C-672.386-1712.997-673.329-1711.285-675.978-1711.285"/>
	<path clip-path="url(#SVGID_2_)" fill="#00386D" d="M-646.86-1723.538h-5.911l-11.662,25.996h6.454l2.114-4.659h12.096l2.083,4.659
		h6.489L-646.86-1723.538z M-653.428-1707.825l3.608-8.281l3.617,8.281H-653.428z"/>
	<path clip-path="url(#SVGID_2_)" fill="#00386D" d="M-773.393-1738.909l-0.008-0.002c-0.602,0.794-2.11,1.291-3.483,1.291
		c-0.658,0-2.773-0.166-3.515-2.185h7.043v-0.005h1.324l-0.007,0.005h1.545h0.288l0.031-0.287l0.06-0.623
		c0.223-2.278-0.311-4.206-1.552-5.575c-1.229-1.354-3.078-2.097-5.217-2.097c-3.953,0-6.938,3.024-6.938,7.033
		c0,4.054,2.854,6.882,6.938,6.882c2.357,0,4.594-1.012,5.836-2.643l0.405-0.532l0.189-0.247l-0.243-0.197l-1.815-1.279
		l-0.359-0.225L-773.393-1738.909z M-780.402-1742.834c0.529-1.538,1.845-2.478,3.518-2.478c1.971,0,3.236,0.874,3.608,2.478
		H-780.402z"/>
</g>
<polygon fill="#00386D" points="-734.567,-1836.628 -647.403,-1836.628 -647.617,-1766.041 -635.981,-1766.058 -635.981,-1914.026 
	-647.617,-1914.041 -647.403,-1846.167 -734.567,-1846.167 -734.617,-1914.021 -759.298,-1914.021 -759.331,-1766.101 
	-734.617,-1766.101 "/>
<g>
	<defs>
		<rect id="SVGID_3_" x="-1283" y="-2129.792" width="2791.431" height="4409.792"/>
	</defs>
	<clipPath id="SVGID_4_">
		<use xlink:href="#SVGID_3_"  overflow="visible"/>
	</clipPath>
	<path clip-path="url(#SVGID_4_)" fill="#00386D" d="M-843.451-1767.907c5.401,1.523,11.519,1.866,18.32,1.866
		c3.253,0,12.657-0.454,19.551-2.828c6.39-2.184,10.762-4.872,15-8.558c4.243-3.675,7.272-8,9.429-12.958
		c2.165-4.963,3.319-10.272,3.319-15.873c0-4.959-1.218-9.439-3.499-13.479c-2.282-4.038-5.325-7.762-9.117-11.163
		c-3.802-3.4-7.168-6.541-11.974-9.418c-4.801-2.885-9.7-5.651-14.701-8.288c-4.999-2.641-9.896-5.237-14.703-7.8
		c-4.804-2.554-9.102-5.22-12.901-7.984c-3.804-2.76-6.848-5.677-9.121-8.758c-2.285-3.085-3.429-6.503-3.429-10.265
		c0-2.639,0.565-5.24,1.685-7.804c1.112-2.561,2.798-4.862,5.042-6.904c2.233-2.035,5.039-3.677,8.404-4.92
		c3.36-1.238,7.28-1.856,11.762-1.856c5.037,0,9.563,0.701,13.56,2.102c4,1.399,7.543,3.375,10.628,5.936
		c3.079,2.564,5.715,5.642,7.917,9.245c2.201,3.596,4.018,7.604,5.465,12.005l12.242-5.644c-3.44-10.642-9.063-18.785-16.862-24.429
		c-7.805-5.636-18.405-8.373-31.847-8.373c-7.452,0-14.069,0.875-19.824,2.795c-5.77,1.918-10.932,4.601-14.888,8.038
		c-3.96,3.448-6.96,7.483-9.002,12.125c-2.042,4.641-3.47,9.686-3.47,15.129c0,5.44,1.532,10.241,3.764,14.403
		c2.243,4.163,5.18,7.918,8.826,11.281c3.641,3.36,8.094,6.421,12.784,9.178c4.683,2.764,9.485,5.406,14.402,7.926
		c4.923,2.515,9.726,5.021,14.408,7.503c4.684,2.479,8.833,5.143,12.488,7.978c3.637,2.846,6.577,5.97,8.812,9.366
		c2.24,3.402,3.364,7.259,3.364,11.587c0,3.597-0.817,6.778-2.457,9.544c-1.649,2.756-3.807,5.078-6.484,6.957
		c-2.689,1.886-5.744,3.297-9.189,4.264c-3.435,0.952-6.92,1.443-10.437,1.443c-9.365,0-17.507-2.584-24.422-7.746
		c-6.93-5.164-11.875-12.419-14.827-21.782l-10.753,5.48c1.927,5.276,4.882,9.779,7.805,13.898
		c2.919,4.125,6.419,7.606,10.498,10.435C-853.795-1771.401-848.853-1769.426-843.451-1767.907"/>
	<polygon clip-path="url(#SVGID_4_)" fill="#00386D" points="-1022.105,-1944.851 -1037.24,-1918.625 -1037.25,-1918.625 
		-1027.471,-1901.694 -1002.552,-1944.851 -1027.471,-1988.007 -1037.25,-1971.077 -1037.243,-1971.077 	"/>
	<polygon clip-path="url(#SVGID_4_)" fill="#780D80" points="-1040.996,-1924.672 -1029.354,-1944.851 -1040.996,-1965.024 
		-1041.002,-1965.024 -1052.649,-1944.851 -1041.002,-1924.672 	"/>
	<path clip-path="url(#SVGID_4_)" fill="#00386D" d="M-894.83-1914.276h-11.033v94.418c0,6.247-1.052,12.108-3.136,17.612
		c-2.1,5.494-5.094,10.294-8.984,14.402c-3.903,4.102-8.596,7.462-14.178,9.841c-5.574,2.383-9.47,3.46-16.44,3.46
		c-6.891,0-12.952-1.201-18.531-3.581c-5.579-2.377-10.354-5.618-14.339-9.72c-3.976-4.108-7.028-8.908-9.162-14.402
		c-2.14-5.504-2.976-11.366-2.976-17.612v-26.799h-0.012v-67.416c-18.626,0-24.72,14.362-24.702,21.705c0.02,8.66,0,66.387,0,66.387
		c0,13.188,1.358,20.304,4.063,26.995c2.709,6.683,6.664,12.537,11.874,17.544c5.203,5.007,11.689,8.966,19.443,11.876
		c7.751,2.914,16.499,3.511,26.595,3.511c11.314,0,18.567-0.597,26.609-3.511c8.039-2.91,14.622-6.849,19.746-11.819
		c5.132-4.963,8.909-10.743,11.323-17.357c2.421-6.605,3.827-13.643,3.827-21.116L-894.83-1914.276z"/>
	<path clip-path="url(#SVGID_4_)" fill="#00386D" d="M-1061.432-1766.055h24.702v-101.281h-0.009c0-13.587,0-21.255,0.009-24.812
		c0.011-7.339-6.077-21.904-24.707-21.904l0.005,46.716V-1766.055z"/>
	<polygon clip-path="url(#SVGID_4_)" fill="#00386D" points="-1058.847,-1734.637 -1058.525,-1734.637 -1058.525,-1734.958 
		-1058.525,-1752.745 -1058.525,-1753.068 -1058.847,-1753.068 -1061.471,-1753.068 -1061.788,-1753.068 -1061.788,-1752.745 
		-1061.788,-1734.958 -1061.788,-1734.637 -1061.471,-1734.637 	"/>
	<path clip-path="url(#SVGID_4_)" fill="#00386D" d="M-1043.901-1748.413L-1043.901-1748.413h-0.006
		c-1.161,0.021-2.232,0.313-3.137,0.862v-0.329v-0.319h-0.323h-2.504h-0.32v0.319v12.922v0.321h0.32h2.53h0.32v-0.321v-7.058
		c0-1.896,1.296-3.229,3.151-3.248c2.017,0,3.087,1.049,3.087,3.035v7.271v0.321h0.32h2.525h0.325v-0.321v-7.292
		C-1037.613-1745.994-1040.082-1748.413-1043.901-1748.413"/>
	<path clip-path="url(#SVGID_4_)" fill="#00386D" d="M-1023.998-1745.286c1.184,0,2.045,0.161,2.978,0.976l0.495,0.44l0.233,0.206
		l0.212-0.23l1.635-1.741l0.221-0.232l-0.232-0.217l-0.502-0.472c-1.296-1.214-3.018-1.83-5.123-1.83
		c-1.863,0-3.495,0.568-4.474,1.556c-0.731,0.735-1.095,1.654-1.082,2.722c0.035,3.233,3.249,3.768,5.378,4.123l0.154,0.025
		c2.195,0.353,2.827,0.545,2.813,1.139c-0.044,1.127-1.857,1.246-2.636,1.246c-1.485,0-2.775-0.577-3.45-1.548l-0.439-0.641
		l-0.208-0.293l-0.273,0.24l-1.866,1.665l-0.207,0.181l0.151,0.234l0.321,0.494c1.142,1.749,3.366,2.793,5.949,2.793
		c1.334,0,5.697-0.305,5.804-4.228c0.147-3.368-3.029-3.895-5.134-4.245l-0.665-0.108c-1.856-0.331-2.55-0.641-2.568-1.144
		c-0.006-0.193,0.049-0.332,0.187-0.474C-1025.944-1745.042-1025.052-1745.286-1023.998-1745.286"/>
	<path clip-path="url(#SVGID_4_)" fill="#00386D" d="M-1001.303-1735.445l0.274-0.134l-0.121-0.283l-0.935-2.207l-0.132-0.306
		l-0.304,0.142l-0.648,0.308c-0.499,0.241-0.98,0.376-1.36,0.376c-0.737,0-1.143,0-1.143-1.688v-5.98h3.647h0.323v-0.32v-2.343
		v-0.319h-0.323h-3.647v-3.277v-0.354l-0.353,0.035l-2.509,0.262l-0.284,0.03v0.285v3.019h-2.163h-0.32v0.319v2.343v0.32h0.32h2.163
		v5.98c0,3.118,1.481,4.765,4.289,4.765c0.817,0,1.672-0.226,2.634-0.692L-1001.303-1735.445z"/>
	<polygon clip-path="url(#SVGID_4_)" fill="#00386D" points="-993.497,-1748.248 -993.817,-1748.248 -993.817,-1747.926 
		-993.817,-1734.958 -993.817,-1734.637 -993.497,-1734.637 -990.968,-1734.637 -990.646,-1734.637 -990.646,-1734.958 
		-990.646,-1747.926 -990.646,-1748.248 -990.968,-1748.248 	"/>
	<path clip-path="url(#SVGID_4_)" fill="#00386D" d="M-992.207-1753.333c-0.963,0-1.941,0.648-1.941,1.888
		c0,1.25,1.001,1.926,1.941,1.926c0.939,0,1.936-0.676,1.936-1.926C-990.271-1752.685-991.245-1753.333-992.207-1753.333"/>
	<path clip-path="url(#SVGID_4_)" fill="#00386D" d="M-977.437-1751.83l-0.353,0.035l-2.506,0.262l-0.287,0.03v0.284v3.02h-2.162
		h-0.322v0.32v2.342v0.32h0.322h2.162v5.98c0,3.117,1.484,4.764,4.288,4.764c0.81,0,1.674-0.225,2.636-0.691l0.592-0.281
		l0.274-0.135l-0.118-0.283l-0.94-2.206l-0.135-0.305l-0.301,0.141l-0.643,0.308c-0.5,0.241-0.984,0.376-1.365,0.376
		c-0.737,0-1.142,0-1.142-1.688v-5.98h3.647h0.322v-0.32v-2.342v-0.32h-0.322h-3.647v-3.276V-1751.83z"/>
	<path clip-path="url(#SVGID_4_)" fill="#00386D" d="M-955.877-1748.224h-0.322v0.322v7.184c0,1.85-1.264,3.104-3.146,3.124
		c-2.049,0-3.089-0.978-3.089-2.907v-7.401v-0.322h-0.322h-2.53h-0.321v0.322v7.42c0,3.666,2.465,6.031,6.284,6.031
		c1.172-0.018,2.247-0.311,3.146-0.855v0.348v0.321h0.321h2.504h0.324v-0.321v-12.944v-0.322h-0.324H-955.877z"/>
	<path clip-path="url(#SVGID_4_)" fill="#00386D" d="M-938.444-1745.217c1.076,0,2.089,0.401,2.787,1.099l0.479,0.479l0.222,0.221
		l0.223-0.22l1.751-1.692l0.238-0.229l-0.238-0.23l-0.506-0.492c-1.337-1.31-3.099-2.035-4.956-2.035
		c-4.126,0-7.011,2.863-7.011,6.962c0,3.96,2.952,6.837,7.011,6.837c1.885,0,3.647-0.73,4.971-2.046l0.483-0.488l0.224-0.226
		l-0.227-0.229l-1.75-1.747l-0.223-0.225l-0.231,0.225l-0.484,0.486c-0.729,0.731-1.734,1.147-2.763,1.147
		c-0.905,0-3.862-0.27-3.862-3.734C-942.306-1744.021-940.363-1745.217-938.444-1745.217"/>
	<polygon clip-path="url(#SVGID_4_)" fill="#00386D" points="-925.285,-1748.248 -925.605,-1748.248 -925.605,-1747.926 
		-925.605,-1734.958 -925.605,-1734.637 -925.285,-1734.637 -922.756,-1734.637 -922.438,-1734.637 -922.438,-1734.958 
		-922.438,-1747.926 -922.438,-1748.248 -922.756,-1748.248 	"/>
	<path clip-path="url(#SVGID_4_)" fill="#00386D" d="M-924-1753.35c-0.962,0-1.937,0.651-1.937,1.884c0,1.256,1,1.93,1.937,1.93
		c0.943,0,1.939-0.674,1.939-1.93C-922.061-1752.699-923.033-1753.35-924-1753.35"/>
	<polygon clip-path="url(#SVGID_4_)" fill="#00386D" points="-906.432,-1749.505 -906.333,-1749.63 -904.007,-1752.641 
		-903.865,-1752.867 -903.819,-1752.946 -903.819,-1753.036 -903.819,-1753.94 -903.819,-1754.26 -904.134,-1754.26 
		-906.688,-1754.26 -906.861,-1754.26 -906.955,-1754.111 -908.969,-1750.98 -909.016,-1750.902 -909.016,-1750.806 
		-909.016,-1749.828 -909.016,-1749.505 -908.7,-1749.505 -906.59,-1749.505 	"/>
	<path clip-path="url(#SVGID_4_)" fill="#00386D" d="M-914.196-1741.33c0,4.038,2.856,6.858,6.941,6.858
		c4.086,0,6.937-2.82,6.937-6.858c0-4.104-2.915-7.083-6.937-7.083C-911.275-1748.413-914.196-1745.435-914.196-1741.33
		 M-907.255-1745.312c2.197,0,3.79,1.674,3.79,3.982c0,2.219-1.523,3.71-3.79,3.71s-3.793-1.491-3.793-3.71
		C-911.048-1743.638-909.456-1745.312-907.255-1745.312"/>
	<path clip-path="url(#SVGID_4_)" fill="#00386D" d="M-889.585-1734.637h0.32v-0.321v-7.058c0-1.895,1.294-3.229,3.151-3.248
		c2.016,0,3.086,1.049,3.086,3.035v7.271v0.321h0.32h2.532h0.318v-0.321v-7.292c0-3.744-2.467-6.163-6.285-6.163h-0.005h-0.002
		c-1.16,0.021-2.234,0.313-3.14,0.862v-0.329v-0.32h-0.317h-2.506h-0.319v0.32v12.922v0.321h0.319H-889.585z"/>
	<path clip-path="url(#SVGID_4_)" fill="#00386D" d="M-854.415-1753.069h-0.323h-2.622h-0.323v0.324v10.967
		c0,5.094,3.686,7.372,7.337,7.372c3.537,0,7.346-2.306,7.346-7.372v-10.967v-0.324h-0.321h-2.622h-0.319v0.324v10.967
		c0,2.895-2.055,4.19-4.084,4.19c-2.026,0-4.069-1.295-4.069-4.19v-10.967V-1753.069z"/>
	<path clip-path="url(#SVGID_4_)" fill="#00386D" d="M-828.472-1748.413L-828.472-1748.413h-0.005
		c-1.163,0.021-2.234,0.313-3.137,0.862v-0.329v-0.319h-0.32h-2.508h-0.32v0.319v12.922v0.321h0.32h2.532h0.322v-0.321v-7.058
		c0-1.896,1.291-3.229,3.148-3.248c2.017,0,3.086,1.049,3.086,3.035v7.271v0.321h0.319h2.53h0.32v-0.321v-7.292
		C-822.185-1745.994-824.65-1748.413-828.472-1748.413"/>
	<polygon clip-path="url(#SVGID_4_)" fill="#00386D" points="-813.625,-1748.248 -813.946,-1748.248 -813.946,-1747.926 
		-813.946,-1734.958 -813.946,-1734.637 -813.625,-1734.637 -811.096,-1734.637 -810.778,-1734.637 -810.778,-1734.958 
		-810.778,-1747.926 -810.778,-1748.248 -811.096,-1748.248 	"/>
	<path clip-path="url(#SVGID_4_)" fill="#00386D" d="M-812.335-1753.363c-0.963,0-1.942,0.648-1.942,1.887
		c0,1.253,1.001,1.927,1.942,1.927c0.939,0,1.936-0.674,1.936-1.927C-810.399-1752.715-811.37-1753.363-812.335-1753.363"/>
	<polygon clip-path="url(#SVGID_4_)" fill="#00386D" points="-789.781,-1748.199 -790.263,-1748.199 -793.03,-1748.199 
		-793.243,-1748.199 -793.326,-1748.002 -796.826,-1739.615 -800.325,-1748.002 -800.406,-1748.199 -800.621,-1748.199 
		-803.387,-1748.199 -803.871,-1748.199 -803.685,-1747.756 -798.214,-1734.833 -798.131,-1734.636 -797.92,-1734.636 
		-795.73,-1734.636 -795.521,-1734.636 -795.438,-1734.833 -789.967,-1747.756 	"/>
	<path clip-path="url(#SVGID_4_)" fill="#00386D" d="M-759.046-1734.637h0.321v-0.321v-7.366c0-1.605,1.252-2.874,2.85-2.894
		c0.541,0,1.031,0.132,1.456,0.396l0.616,0.376l0.286,0.175l0.163-0.296l1.179-2.149l0.147-0.271l-0.261-0.156l-0.563-0.345
		c-0.91-0.549-1.886-0.829-2.909-0.829h-0.118c-1.088,0-2.088,0.256-2.925,0.743l-0.009-0.314l-0.004-0.313h-0.313h-2.446h-0.319
		v0.32v12.922v0.321h0.319H-759.046z"/>
	<path clip-path="url(#SVGID_4_)" fill="#00386D" d="M-739.955-1737.575c-1.484,0-2.772-0.578-3.451-1.549l-0.44-0.64l-0.209-0.294
		l-0.267,0.24l-1.87,1.665l-0.209,0.182l0.153,0.234l0.322,0.494c1.141,1.749,3.365,2.793,5.95,2.793
		c1.334,0,5.695-0.305,5.801-4.227c0.149-3.369-3.029-3.896-5.134-4.246l-0.664-0.108c-1.856-0.332-2.556-0.641-2.567-1.143
		c-0.007-0.194,0.047-0.333,0.187-0.475c0.38-0.394,1.275-0.637,2.326-0.637c1.186,0,2.05,0.16,2.978,0.975l0.497,0.441l0.232,0.205
		l0.216-0.23l1.633-1.741l0.216-0.232l-0.231-0.218l-0.499-0.471c-1.297-1.214-3.016-1.831-5.123-1.831
		c-1.865,0-3.493,0.567-4.475,1.556c-0.729,0.736-1.096,1.654-1.08,2.722c0.032,3.234,3.249,3.77,5.378,4.123l0.15,0.026
		c2.196,0.353,2.83,0.544,2.817,1.139C-737.36-1737.695-739.175-1737.575-739.955-1737.575"/>
	<polygon clip-path="url(#SVGID_4_)" fill="#00386D" points="-726.064,-1748.248 -726.386,-1748.248 -726.386,-1747.926 
		-726.386,-1734.958 -726.386,-1734.637 -726.064,-1734.637 -723.533,-1734.637 -723.213,-1734.637 -723.213,-1734.958 
		-723.213,-1747.926 -723.213,-1748.248 -723.533,-1748.248 	"/>
	<path clip-path="url(#SVGID_4_)" fill="#00386D" d="M-724.774-1753.363c-0.963,0-1.94,0.648-1.94,1.887c0,1.253,1,1.927,1.94,1.927
		c0.943,0,1.939-0.674,1.939-1.927C-722.835-1752.715-723.812-1753.363-724.774-1753.363"/>
	<path clip-path="url(#SVGID_4_)" fill="#00386D" d="M-713.153-1739.236c0,3.117,1.485,4.764,4.293,4.764
		c0.811,0,1.675-0.225,2.63-0.692l0.592-0.28l0.276-0.135l-0.12-0.283l-0.938-2.207l-0.13-0.305l-0.301,0.142l-0.65,0.308
		c-0.499,0.241-0.98,0.375-1.359,0.375c-0.738,0-1.147,0-1.147-1.687v-5.98h3.65h0.319v-0.321v-2.343v-0.319h-0.319h-3.65v-3.277
		v-0.353l-0.351,0.035l-2.507,0.262l-0.288,0.03v0.284v3.019h-2.161h-0.321v0.319v2.343v0.321h0.321h2.161V-1739.236z"/>
	<path clip-path="url(#SVGID_4_)" fill="#00386D" d="M-688.084-1734.958v0.321h0.321h2.533h0.316v-0.321v-12.922v-0.319h-0.316
		h-2.533h-0.321v0.319v0.653c-1.062-0.729-2.352-1.114-3.769-1.114c-3.952,0-6.934,3.004-6.934,6.987
		c0,3.936,2.982,6.903,6.934,6.903c1.403,0,2.692-0.396,3.769-1.153V-1734.958z M-688.947-1738.785
		c-0.69,0.779-1.693,1.186-2.906,1.186c-2.215,0-3.766-1.541-3.766-3.755c0-2.237,1.585-3.863,3.766-3.863
		c2.661,0,3.869,2.006,3.869,3.876C-687.984-1740.352-688.298-1739.514-688.947-1738.785"/>
	<path clip-path="url(#SVGID_4_)" fill="#00386D" d="M-670.421-1748.316h-0.117c-1.093,0-2.089,0.256-2.925,0.743l-0.011-0.314
		l-0.002-0.312h-0.316h-2.442h-0.321v0.319v12.922v0.321h0.321h2.529h0.319v-0.321v-7.365c0-1.606,1.254-2.874,2.849-2.894
		c0.54,0,1.031,0.132,1.459,0.397l0.615,0.376l0.288,0.174l0.161-0.296l1.18-2.149l0.147-0.271l-0.261-0.156l-0.567-0.344
		C-668.422-1748.036-669.399-1748.316-670.421-1748.316"/>
	<path clip-path="url(#SVGID_4_)" fill="#00386D" d="M-658.456-1753.363c-0.962,0-1.938,0.648-1.938,1.887
		c0,1.253,1.001,1.927,1.938,1.927c0.94,0,1.94-0.674,1.94-1.927C-656.516-1752.715-657.491-1753.363-658.456-1753.363"/>
	<polygon clip-path="url(#SVGID_4_)" fill="#00386D" points="-659.745,-1748.248 -660.063,-1748.248 -660.063,-1747.926 
		-660.063,-1734.958 -660.063,-1734.637 -659.745,-1734.637 -657.213,-1734.637 -656.891,-1734.637 -656.891,-1734.958 
		-656.891,-1747.926 -656.891,-1748.248 -657.213,-1748.248 	"/>
	<path clip-path="url(#SVGID_4_)" fill="#00386D" d="M-638.852-1734.637h0.317h2.53h0.32v-0.321v-12.922v-0.319h-0.32h-2.53h-0.317
		v0.319v0.653c-1.067-0.729-2.356-1.114-3.769-1.114c-3.957,0-6.94,3.005-6.94,6.987c0,3.936,2.983,6.903,6.94,6.903
		c1.399,0,2.688-0.395,3.769-1.153v0.646V-1734.637z M-646.389-1741.354c0-2.237,1.583-3.863,3.768-3.863
		c2.656,0,3.865,2.007,3.865,3.876c0,0.989-0.315,1.827-0.964,2.556c-0.688,0.779-1.691,1.187-2.901,1.187
		C-644.841-1737.599-646.389-1739.14-646.389-1741.354"/>
	<path clip-path="url(#SVGID_4_)" fill="#00386D" d="M-1050.387-1713.929c-3.557-0.424-4.945-1.119-4.945-2.469
		c0-1.654,1.676-2.644,4.484-2.644c2.499,0,4.599,1.258,5.308,2.441l0.31,0.517l4.801-2.469l-0.279-0.565
		c-1.689-3.444-5.244-5.264-10.288-5.264c-5.078,0.037-10.206,2.479-10.206,7.842c0,6.078,5.195,7.513,10.285,8.121
		c4.612,0.494,5.143,1.947,5.143,3c0,2.844-3.857,3.068-5.044,3.068c-3.094,0-5.47-1.318-6.357-3.52l-0.266-0.654l-5.025,2.606
		l0.22,0.542c1.766,4.357,5.483,6.473,11.36,6.473c6.796,0,11.02-3.264,11.02-8.515
		C-1039.866-1711.758-1044.921-1713.255-1050.387-1713.929"/>
	<path clip-path="url(#SVGID_4_)" fill="#00386D" d="M-1025.734-1723.538l-11.662,25.996h6.45l2.12-4.659h12.094l2.082,4.659h6.491
		l-11.662-25.996H-1025.734z M-1026.388-1707.825l3.611-8.281l3.612,8.281H-1026.388z"/>
	<polygon clip-path="url(#SVGID_4_)" fill="#00386D" points="-998.336,-1723.538 -1004.278,-1723.538 -1004.278,-1697.542 
		-985.626,-1697.542 -985.626,-1703.131 -998.336,-1703.131 	"/>
	<path clip-path="url(#SVGID_4_)" fill="#00386D" d="M-971.812-1723.538l-11.664,25.996h6.451l2.117-4.659h12.094l2.084,4.659h6.49
		l-11.661-25.996H-971.812z M-972.466-1707.825l3.608-8.281l3.615,8.281H-972.466z"/>
	<polygon clip-path="url(#SVGID_4_)" fill="#00386D" points="-950.782,-1717.876 -939.164,-1717.876 -951.095,-1701.07 
		-951.095,-1697.542 -930.505,-1697.542 -930.505,-1703.237 -942.727,-1703.237 -930.505,-1720.505 -930.505,-1723.538 
		-950.782,-1723.538 	"/>
	<path clip-path="url(#SVGID_4_)" fill="#00386D" d="M-917.151-1723.538l-11.664,25.996h6.452l2.12-4.659h12.092l2.085,4.659h6.487
		l-11.662-25.996H-917.151z M-917.806-1707.825l3.61-8.281l3.612,8.281H-917.806z"/>
	<path clip-path="url(#SVGID_4_)" fill="#00386D" d="M-874.109-1714.705c0-4.224-2.987-8.795-9.54-8.833
		c-1.958,0-3.917-0.01-5.876-0.017c-1.959-0.009-3.92-0.019-5.88-0.019h-0.64v26.031h5.942v-8.261h3.55l7.202,8.261h6.476v-1.199
		l-6.949-7.835C-876.177-1707.71-874.109-1710.617-874.109-1714.705 M-883.649-1711.285h-6.454v-6.626h6.454
		c2.652,0,3.598,1.784,3.598,3.313C-880.051-1712.997-881-1711.285-883.649-1711.285"/>
	<polygon clip-path="url(#SVGID_4_)" fill="#00386D" points="-847.974,-1713.896 -853.911,-1723.538 -860.452,-1723.538 
		-860.452,-1722.489 -850.958,-1708.194 -850.958,-1697.542 -845.016,-1697.542 -845.016,-1708.186 -835.166,-1722.485 
		-835.166,-1723.538 -841.766,-1723.538 	"/>
	<polygon clip-path="url(#SVGID_4_)" fill="#00386D" points="-804.345,-1713.085 -815.208,-1713.085 -815.208,-1723.504 
		-821.149,-1723.504 -821.149,-1697.506 -815.208,-1697.506 -815.208,-1707.497 -804.345,-1707.497 -804.345,-1697.506 
		-798.438,-1697.506 -798.438,-1723.504 -804.345,-1723.504 	"/>
	<polygon clip-path="url(#SVGID_4_)" fill="#00386D" points="-792.375,-1697.542 -772.589,-1697.542 -772.589,-1703.41 
		-786.466,-1703.41 -786.466,-1707.71 -773.084,-1707.71 -773.084,-1713.332 -786.466,-1713.332 -786.466,-1717.737 
		-772.589,-1717.737 -772.589,-1723.538 -792.375,-1723.538 	"/>
	<path clip-path="url(#SVGID_4_)" fill="#00386D" d="M-745.26-1714.705c0-4.224-2.983-8.795-9.538-8.833
		c-1.958,0-3.918-0.01-5.877-0.017c-1.961-0.009-3.921-0.019-5.879-0.019h-0.64v26.031h5.94v-8.261h3.55l7.204,8.261h6.474v-1.199
		l-6.949-7.835C-747.327-1707.71-745.26-1710.617-745.26-1714.705 M-754.798-1711.285h-6.456v-6.626h6.456
		c2.658,0,3.596,1.784,3.596,3.313C-751.202-1712.997-752.145-1711.285-754.798-1711.285"/>
	<path clip-path="url(#SVGID_4_)" fill="#00386D" d="M-718.387-1714.705c0-4.224-2.987-8.795-9.538-8.833
		c-1.961,0-3.918-0.01-5.876-0.017c-1.96-0.009-3.921-0.019-5.883-0.019h-0.637v26.031h5.94v-8.261h3.552l7.201,8.261h6.477v-1.199
		l-6.95-7.835C-720.455-1707.71-718.387-1710.617-718.387-1714.705 M-727.925-1711.285h-6.456v-6.626h6.456
		c2.652,0,3.596,1.784,3.596,3.313C-724.329-1712.997-725.273-1711.285-727.925-1711.285"/>
	<polygon clip-path="url(#SVGID_4_)" fill="#00386D" points="-713.557,-1697.542 -693.776,-1697.542 -693.776,-1703.41 
		-707.648,-1703.41 -707.648,-1707.71 -694.267,-1707.71 -694.267,-1713.332 -707.648,-1713.332 -707.648,-1717.737 
		-693.776,-1717.737 -693.776,-1723.538 -713.557,-1723.538 	"/>
	<path clip-path="url(#SVGID_4_)" fill="#00386D" d="M-666.444-1714.705c0-4.224-2.985-8.795-9.534-8.833
		c-1.961,0-3.919-0.01-5.879-0.017c-1.959-0.009-3.92-0.019-5.88-0.019h-0.64v26.031h5.94v-8.261h3.551l7.202,8.261h6.476v-1.199
		l-6.949-7.835C-668.509-1707.71-666.444-1710.617-666.444-1714.705 M-675.978-1711.285h-6.459v-6.626h6.459
		c2.652,0,3.592,1.784,3.592,3.313C-672.386-1712.997-673.329-1711.285-675.978-1711.285"/>
	<path clip-path="url(#SVGID_4_)" fill="#00386D" d="M-646.86-1723.538h-5.911l-11.662,25.996h6.454l2.114-4.659h12.096l2.083,4.659
		h6.489L-646.86-1723.538z M-653.428-1707.825l3.608-8.281l3.617,8.281H-653.428z"/>
	<path clip-path="url(#SVGID_4_)" fill="#00386D" d="M-773.393-1738.909l-0.008-0.002c-0.602,0.794-2.11,1.291-3.483,1.291
		c-0.658,0-2.773-0.166-3.515-2.185h7.043v-0.005h1.324l-0.007,0.005h1.545h0.288l0.031-0.287l0.06-0.623
		c0.223-2.278-0.311-4.206-1.552-5.575c-1.229-1.354-3.078-2.097-5.217-2.097c-3.953,0-6.938,3.024-6.938,7.033
		c0,4.054,2.854,6.882,6.938,6.882c2.357,0,4.594-1.012,5.836-2.643l0.405-0.532l0.189-0.247l-0.243-0.197l-1.815-1.279
		l-0.359-0.225L-773.393-1738.909z M-780.402-1742.834c0.529-1.538,1.845-2.478,3.518-2.478c1.971,0,3.236,0.874,3.608,2.478
		H-780.402z"/>
</g>
<polygon fill="#00386D" points="169.191,78.906 213.178,78.906 213.069,114.527 218.941,114.519 218.941,39.849 213.069,39.841 
	213.178,74.094 169.191,74.094 169.166,39.852 156.711,39.852 156.693,114.498 169.166,114.498 "/>
<path fill="#00386D" d="M114.244,113.586c2.726,0.77,5.812,0.941,9.245,0.941c1.641,0,6.386-0.228,9.866-1.426
	c3.225-1.104,5.43-2.459,7.569-4.319c2.142-1.854,3.67-4.036,4.758-6.538c1.093-2.506,1.674-5.186,1.674-8.012
	c0-2.502-0.612-4.763-1.765-6.802c-1.151-2.038-2.688-3.917-4.601-5.634c-1.919-1.715-3.618-3.301-6.042-4.752
	c-2.424-1.457-4.896-2.853-7.419-4.183c-2.523-1.334-4.995-2.643-7.421-3.936c-2.424-1.289-4.593-2.635-6.511-4.028
	c-1.918-1.395-3.455-2.867-4.603-4.421c-1.152-1.558-1.73-3.282-1.73-5.181c0-1.332,0.286-2.645,0.852-3.938
	c0.561-1.292,1.411-2.454,2.543-3.484c1.127-1.027,2.545-1.855,4.242-2.483c1.695-0.624,3.674-0.936,5.936-0.936
	c2.542,0,4.826,0.354,6.844,1.061c2.018,0.705,3.806,1.703,5.363,2.995c1.553,1.294,2.883,2.847,3.994,4.665
	c1.111,1.814,2.027,3.837,2.758,6.059l6.178-2.849c-1.735-5.37-4.573-9.479-8.51-12.327c-3.938-2.845-9.286-4.226-16.07-4.226
	c-3.761,0-7.102,0.441-10.004,1.41c-2.913,0.968-5.518,2.322-7.514,4.057c-1.998,1.74-3.513,3.777-4.543,6.119
	c-1.03,2.341-1.75,4.887-1.75,7.635c0,2.744,0.773,5.167,1.898,7.268c1.132,2.101,2.614,3.996,4.454,5.693
	c1.838,1.695,4.085,3.241,6.452,4.632c2.363,1.396,4.786,2.728,7.268,3.999c2.483,1.27,4.907,2.533,7.271,3.786
	c2.364,1.251,4.459,2.596,6.302,4.026c1.836,1.437,3.319,3.013,4.448,4.727c1.13,1.717,1.696,3.663,1.696,5.847
	c0,1.815-0.412,3.421-1.239,4.817c-0.832,1.39-1.92,2.562-3.272,3.511c-1.356,0.951-2.897,1.664-4.637,2.151
	c-1.733,0.482-3.492,0.728-5.268,0.728c-4.725,0-8.834-1.304-12.324-3.907c-3.497-2.607-5.993-6.268-7.482-10.993l-5.427,2.766
	c0.974,2.663,2.465,4.935,3.94,7.013c1.473,2.082,3.238,3.838,5.297,5.268C109.023,111.822,111.517,112.819,114.244,113.586"/>
<polygon fill="#00386D" points="24.088,24.294 16.449,37.527 16.444,37.527 21.379,46.071 33.955,24.294 21.379,2.515 
	16.444,11.059 16.447,11.059 "/>
<polygon fill="#780D80" points="14.554,34.476 20.429,24.294 14.554,14.112 14.552,14.112 8.674,24.294 14.552,34.476 "/>
<path fill="#00386D" d="M88.316,39.722h-5.568V87.37c0,3.152-0.531,6.11-1.583,8.888c-1.059,2.773-2.571,5.194-4.534,7.269
	c-1.969,2.069-4.337,3.765-7.154,4.967c-2.812,1.202-4.778,1.745-8.297,1.745c-3.477,0-6.535-0.605-9.351-1.807
	c-2.815-1.199-5.225-2.836-7.237-4.905c-2.006-2.074-3.545-4.495-4.621-7.269c-1.08-2.777-1.504-5.735-1.504-8.888V73.845h-0.004
	v-34.02c-9.4,0-12.477,7.248-12.467,10.953c0.01,4.37,0,33.502,0,33.502c0,6.655,0.686,10.246,2.051,13.623
	c1.366,3.373,3.362,6.325,5.992,8.853c2.625,2.527,5.898,4.525,9.812,5.993c3.91,1.472,8.324,1.772,13.42,1.772
	c5.71,0,9.37-0.301,13.428-1.772c4.057-1.468,7.379-3.455,9.965-5.964c2.59-2.504,4.495-5.421,5.714-8.76
	c1.222-3.333,1.931-6.885,1.931-10.655L88.316,39.722z"/>
<path fill="#00386D" d="M4.241,114.521h12.465V63.411h-0.004c0-6.857,0-10.726,0.004-12.521c0.007-3.704-3.065-11.054-12.468-11.054
	l0.003,23.575V114.521z"/>
<polygon fill="#00386D" points="5.545,130.376 5.708,130.376 5.708,130.214 5.708,121.238 5.708,121.074 5.545,121.074 
	4.221,121.074 4.062,121.074 4.062,121.238 4.062,130.214 4.062,130.376 4.221,130.376 "/>
<path fill="#00386D" d="M13.088,123.424L13.088,123.424h-0.004c-0.585,0.01-1.125,0.158-1.582,0.436v-0.166v-0.161h-0.164h-1.263
	H9.914v0.161v6.521v0.161h0.161h1.277h0.161v-0.161v-3.562c0-0.956,0.653-1.629,1.591-1.64c1.017,0,1.557,0.53,1.557,1.532v3.67
	v0.161h0.162h1.272h0.164v-0.161v-3.681C16.26,124.645,15.016,123.424,13.088,123.424"/>
<path fill="#00386D" d="M23.133,125.002c0.598,0,1.03,0.082,1.502,0.492l0.25,0.223l0.117,0.104l0.108-0.115l0.823-0.879
	l0.112-0.117l-0.116-0.11l-0.254-0.238c-0.654-0.612-1.522-0.923-2.586-0.923c-0.939,0-1.764,0.286-2.258,0.785
	c-0.369,0.372-0.553,0.835-0.546,1.374c0.017,1.631,1.64,1.901,2.714,2.08l0.078,0.014c1.108,0.177,1.426,0.274,1.419,0.575
	c-0.022,0.568-0.937,0.628-1.33,0.628c-0.749,0-1.399-0.292-1.741-0.782l-0.222-0.322l-0.104-0.148l-0.137,0.121l-0.942,0.84
	l-0.104,0.092l0.076,0.118l0.162,0.249c0.576,0.883,1.699,1.409,3.002,1.409c0.673,0,2.875-0.153,2.929-2.133
	c0.075-1.7-1.528-1.966-2.591-2.143l-0.336-0.055c-0.936-0.166-1.287-0.323-1.295-0.576c-0.003-0.099,0.023-0.168,0.094-0.24
	C22.15,125.125,22.6,125.002,23.133,125.002"/>
<path fill="#00386D" d="M34.584,129.969l0.14-0.068l-0.062-0.143l-0.473-1.114l-0.066-0.153l-0.152,0.071l-0.327,0.155
	c-0.252,0.122-0.495,0.19-0.687,0.19c-0.373,0-0.578,0-0.578-0.853v-3.019h1.842h0.162v-0.161v-1.182v-0.161h-0.162h-1.842v-1.654
	V121.7l-0.177,0.018l-1.267,0.131l-0.144,0.017v0.144v1.523h-1.091H29.54v0.161v1.182v0.161h0.161h1.091v3.019
	c0,1.573,0.748,2.404,2.165,2.404c0.411,0,0.844-0.114,1.329-0.348L34.584,129.969z"/>
<polygon fill="#00386D" points="38.525,123.508 38.363,123.508 38.363,123.67 38.363,130.215 38.363,130.377 38.525,130.377 
	39.801,130.377 39.962,130.377 39.962,130.215 39.962,123.67 39.962,123.508 39.801,123.508 "/>
<path fill="#00386D" d="M39.175,120.941c-0.486,0-0.979,0.326-0.979,0.953c0,0.629,0.506,0.972,0.979,0.972
	c0.475,0,0.978-0.343,0.978-0.972C40.152,121.268,39.66,120.941,39.175,120.941"/>
<path fill="#00386D" d="M46.629,121.699l-0.179,0.019l-1.264,0.131l-0.146,0.017v0.144v1.522h-1.092h-0.162v0.162v1.182v0.161h0.162
	h1.092v3.019c0,1.573,0.748,2.404,2.163,2.404c0.409,0,0.847-0.113,1.331-0.348l0.299-0.143l0.137-0.068l-0.059-0.143l-0.474-1.114
	l-0.068-0.153l-0.151,0.071l-0.325,0.155c-0.252,0.122-0.496,0.189-0.689,0.189c-0.371,0-0.575,0-0.575-0.852v-3.019h1.84h0.162
	v-0.161v-1.182v-0.162h-0.162h-1.84v-1.653V121.699z"/>
<path fill="#00386D" d="M57.508,123.519h-0.162v0.164v3.625c0,0.933-0.639,1.566-1.588,1.576c-1.033,0-1.558-0.493-1.558-1.467
	v-3.734v-0.164h-0.163H52.76h-0.162v0.164v3.744c0,1.85,1.244,3.043,3.173,3.043c0.591-0.008,1.133-0.156,1.587-0.431v0.176v0.161
	h0.162h1.263h0.163v-0.161v-6.532v-0.164h-0.163H57.508z"/>
<path fill="#00386D" d="M66.307,125.036c0.543,0,1.054,0.203,1.406,0.556l0.241,0.241l0.113,0.112l0.111-0.112l0.884-0.853
	l0.119-0.115l-0.119-0.117l-0.256-0.248c-0.675-0.662-1.563-1.027-2.5-1.027c-2.084,0-3.539,1.444-3.539,3.514
	c0,1.998,1.49,3.45,3.539,3.45c0.95,0,1.84-0.368,2.508-1.032l0.244-0.246l0.112-0.114l-0.114-0.114l-0.883-0.884l-0.113-0.113
	l-0.116,0.113l-0.244,0.246c-0.368,0.368-0.874,0.578-1.394,0.578c-0.457,0-1.949-0.136-1.949-1.884
	C64.357,125.641,65.338,125.036,66.307,125.036"/>
<polygon fill="#00386D" points="72.947,123.508 72.785,123.508 72.785,123.67 72.785,130.215 72.785,130.377 72.947,130.377 
	74.223,130.377 74.384,130.377 74.384,130.215 74.384,123.67 74.384,123.508 74.223,123.508 "/>
<path fill="#00386D" d="M73.596,120.932c-0.486,0-0.979,0.33-0.979,0.951c0,0.635,0.506,0.975,0.979,0.975
	c0.475,0,0.979-0.34,0.979-0.975C74.574,121.262,74.084,120.932,73.596,120.932"/>
<polygon fill="#00386D" points="82.461,122.873 82.51,122.811 83.686,121.291 83.756,121.177 83.779,121.137 83.779,121.091 
	83.779,120.635 83.779,120.474 83.62,120.474 82.331,120.474 82.244,120.474 82.197,120.549 81.181,122.129 81.157,122.168 
	81.157,122.217 81.157,122.71 81.157,122.873 81.316,122.873 82.381,122.873 "/>
<path fill="#00386D" d="M78.543,126.998c0,2.038,1.441,3.461,3.504,3.461c2.062,0,3.5-1.423,3.5-3.461
	c0-2.071-1.472-3.574-3.5-3.574C80.017,123.424,78.543,124.927,78.543,126.998 M82.047,124.988c1.107,0,1.912,0.846,1.912,2.01
	c0,1.12-0.77,1.872-1.912,1.872c-1.146,0-1.916-0.752-1.916-1.872C80.131,125.834,80.935,124.988,82.047,124.988"/>
<path fill="#00386D" d="M90.963,130.376h0.161v-0.162v-3.562c0-0.956,0.653-1.629,1.589-1.639c1.019,0,1.559,0.529,1.559,1.53v3.67
	v0.162h0.162h1.277h0.16v-0.162v-3.68c0-1.89-1.245-3.11-3.172-3.11h-0.002h-0.001c-0.585,0.01-1.128,0.158-1.585,0.436v-0.166
	v-0.161h-0.16h-1.264h-0.161v0.161v6.521v0.162h0.161H90.963z"/>
<path fill="#00386D" d="M108.711,121.074h-0.163h-1.323h-0.163v0.164v5.533c0,2.571,1.859,3.722,3.703,3.722
	c1.784,0,3.706-1.164,3.706-3.722v-5.533v-0.164h-0.161h-1.323h-0.16v0.164v5.533c0,1.461-1.038,2.115-2.062,2.115
	c-1.021,0-2.054-0.654-2.054-2.115v-5.533V121.074z"/>
<path fill="#00386D" d="M121.803,123.424L121.803,123.424H121.8c-0.586,0.01-1.126,0.158-1.583,0.436v-0.166v-0.161h-0.162h-1.265
	h-0.161v0.161v6.521v0.161h0.161h1.277h0.163v-0.161v-3.562c0-0.956,0.651-1.629,1.589-1.64c1.018,0,1.557,0.53,1.557,1.532v3.67
	v0.161h0.161h1.275h0.162v-0.161v-3.681C124.975,124.645,123.731,123.424,121.803,123.424"/>
<polygon fill="#00386D" points="129.295,123.508 129.133,123.508 129.133,123.67 129.133,130.215 129.133,130.377 129.295,130.377 
	130.571,130.377 130.731,130.377 130.731,130.215 130.731,123.67 130.731,123.508 130.571,123.508 "/>
<path fill="#00386D" d="M129.945,120.927c-0.486,0-0.979,0.327-0.979,0.951c0,0.633,0.504,0.973,0.979,0.973s0.978-0.34,0.978-0.973
	C130.923,121.254,130.434,120.927,129.945,120.927"/>
<polygon fill="#00386D" points="141.327,123.531 141.085,123.531 139.688,123.531 139.58,123.531 139.538,123.632 137.771,127.863 
	136.007,123.632 135.966,123.531 135.857,123.531 134.461,123.531 134.217,123.531 134.311,123.757 137.072,130.277 
	137.114,130.376 137.22,130.376 138.325,130.376 138.431,130.376 138.473,130.277 141.234,123.757 "/>
<path fill="#00386D" d="M156.838,130.376H157v-0.162v-3.716c0-0.811,0.631-1.452,1.439-1.462c0.271,0,0.519,0.067,0.732,0.201
	l0.312,0.189l0.146,0.089l0.082-0.15l0.594-1.084l0.074-0.137l-0.131-0.079l-0.285-0.173c-0.459-0.277-0.951-0.42-1.468-0.42h-0.058
	c-0.551,0-1.055,0.129-1.478,0.375l-0.005-0.157l-0.002-0.158h-0.158h-1.232H155.4v0.161v6.521v0.162h0.162H156.838z"/>
<path fill="#00386D" d="M166.473,128.894c-0.75,0-1.4-0.292-1.742-0.782l-0.222-0.322l-0.105-0.148l-0.136,0.121l-0.943,0.84
	l-0.104,0.092l0.076,0.118l0.163,0.249c0.575,0.883,1.698,1.409,3.002,1.409c0.675,0,2.875-0.153,2.928-2.133
	c0.076-1.7-1.529-1.966-2.59-2.143l-0.336-0.055c-0.937-0.166-1.289-0.323-1.297-0.577c-0.004-0.098,0.025-0.168,0.097-0.238
	c0.19-0.199,0.644-0.321,1.173-0.321c0.599,0,1.035,0.081,1.503,0.491l0.251,0.223l0.117,0.104l0.109-0.115l0.823-0.879l0.109-0.117
	l-0.116-0.11l-0.252-0.238c-0.655-0.612-1.521-0.923-2.587-0.923c-0.94,0-1.761,0.286-2.256,0.785
	c-0.369,0.372-0.554,0.835-0.546,1.374c0.017,1.631,1.64,1.901,2.714,2.08l0.076,0.013c1.107,0.178,1.428,0.275,1.421,0.576
	C167.781,128.834,166.865,128.894,166.473,128.894"/>
<polygon fill="#00386D" points="173.482,123.508 173.32,123.508 173.32,123.67 173.32,130.215 173.32,130.377 173.482,130.377 
	174.759,130.377 174.92,130.377 174.92,130.215 174.92,123.67 174.92,123.508 174.759,123.508 "/>
<path fill="#00386D" d="M174.133,120.927c-0.485,0-0.979,0.327-0.979,0.951c0,0.633,0.504,0.973,0.979,0.973
	c0.476,0,0.979-0.34,0.979-0.973C175.111,121.254,174.618,120.927,174.133,120.927"/>
<path fill="#00386D" d="M179.998,128.055c0,1.573,0.748,2.404,2.165,2.404c0.409,0,0.846-0.113,1.328-0.348l0.298-0.143l0.14-0.068
	l-0.06-0.143l-0.475-1.114l-0.065-0.153l-0.15,0.071l-0.328,0.155c-0.252,0.122-0.496,0.189-0.688,0.189
	c-0.372,0-0.577,0-0.577-0.852v-3.019h1.842h0.16v-0.161v-1.182v-0.162h-0.16h-1.842v-1.653v-0.179l-0.179,0.019l-1.265,0.131
	l-0.145,0.017v0.144v1.522h-1.091h-0.163v0.162v1.182v0.161h0.163h1.091V128.055z"/>
<path fill="#00386D" d="M192.649,130.215v0.161h0.161h1.277h0.161v-0.161v-6.521v-0.161h-0.161h-1.277h-0.161v0.161v0.33
	c-0.537-0.368-1.188-0.563-1.903-0.563c-1.995,0-3.499,1.517-3.499,3.526c0,1.987,1.504,3.484,3.499,3.484
	c0.708,0,1.359-0.2,1.903-0.584V130.215z M192.213,128.283c-0.348,0.393-0.854,0.598-1.467,0.598c-1.117,0-1.9-0.777-1.9-1.895
	c0-1.129,0.8-1.95,1.9-1.95c1.344,0,1.953,1.013,1.953,1.957C192.699,127.493,192.541,127.914,192.213,128.283"/>
<path fill="#00386D" d="M201.562,123.473h-0.06c-0.552,0-1.053,0.13-1.475,0.375l-0.006-0.157l-0.002-0.158h-0.158h-1.232h-0.162
	v0.161v6.521v0.161h0.162h1.275h0.162v-0.161v-3.718c0-0.81,0.632-1.45,1.438-1.461c0.271,0,0.52,0.067,0.735,0.201l0.312,0.19
	l0.145,0.088l0.081-0.15l0.595-1.084l0.075-0.137l-0.132-0.079l-0.285-0.174C202.57,123.615,202.077,123.473,201.562,123.473"/>
<path fill="#00386D" d="M207.6,120.927c-0.485,0-0.979,0.327-0.979,0.951c0,0.633,0.506,0.973,0.979,0.973
	c0.474,0,0.979-0.34,0.979-0.973C208.578,121.254,208.086,120.927,207.6,120.927"/>
<polygon fill="#00386D" points="206.95,123.508 206.789,123.508 206.789,123.67 206.789,130.215 206.789,130.377 206.95,130.377 
	208.227,130.377 208.391,130.377 208.391,130.215 208.391,123.67 208.391,123.508 208.227,123.508 "/>
<path fill="#00386D" d="M217.493,130.377h0.159h1.277h0.161v-0.162v-6.521v-0.162h-0.161h-1.277h-0.159v0.162v0.33
	c-0.538-0.369-1.188-0.562-1.902-0.562c-1.997,0-3.502,1.516-3.502,3.525c0,1.987,1.505,3.483,3.502,3.483
	c0.706,0,1.356-0.199,1.902-0.582v0.327V130.377z M213.689,126.986c0-1.129,0.799-1.95,1.901-1.95c1.34,0,1.95,1.014,1.95,1.957
	c0,0.5-0.158,0.921-0.486,1.29c-0.347,0.393-0.853,0.598-1.464,0.598C214.47,128.881,213.689,128.104,213.689,126.986"/>
<path fill="#00386D" d="M9.815,140.826c-1.795-0.213-2.495-0.564-2.495-1.246c0-0.836,0.845-1.334,2.263-1.334
	c1.261,0,2.32,0.635,2.677,1.231l0.157,0.261l2.423-1.245l-0.14-0.286c-0.853-1.738-2.647-2.655-5.192-2.655
	c-2.563,0.019-5.15,1.251-5.15,3.956c0,3.068,2.622,3.793,5.189,4.099c2.328,0.249,2.597,0.982,2.597,1.515
	c0,1.435-1.947,1.548-2.546,1.548c-1.562,0-2.762-0.665-3.208-1.777l-0.136-0.329l-2.535,1.315l0.111,0.274
	c0.891,2.196,2.768,3.266,5.733,3.266c3.429,0,5.561-1.647,5.561-4.297C15.124,141.923,12.573,141.167,9.815,140.826"/>
<path fill="#00386D" d="M22.256,135.977l-5.886,13.119h3.255l1.07-2.352h6.104l1.051,2.352h3.275l-5.885-13.119H22.256z
	 M21.926,143.906l1.822-4.179l1.823,4.179H21.926z"/>
<polygon fill="#00386D" points="36.082,135.977 33.083,135.977 33.083,149.096 42.496,149.096 42.496,146.274 36.082,146.274 "/>
<path fill="#00386D" d="M49.468,135.977l-5.886,13.119h3.256l1.066-2.352h6.105l1.051,2.352h3.273l-5.883-13.119H49.468z
	 M49.138,143.906l1.819-4.179l1.824,4.179H49.138z"/>
<polygon fill="#00386D" points="60.08,138.834 65.941,138.834 59.921,147.315 59.921,149.096 70.312,149.096 70.312,146.223 
	64.145,146.223 70.312,137.507 70.312,135.977 60.08,135.977 "/>
<path fill="#00386D" d="M77.052,135.977l-5.887,13.119h3.256l1.07-2.352h6.103l1.053,2.352h3.272l-5.884-13.119H77.052z
	 M76.721,143.906l1.822-4.179l1.823,4.179H76.721z"/>
<path fill="#00386D" d="M98.771,140.435c0-2.132-1.507-4.439-4.813-4.458c-0.988,0-1.978-0.004-2.966-0.008
	c-0.989-0.004-1.978-0.01-2.967-0.01h-0.322v13.137h2.999v-4.168h1.791l3.634,4.168h3.268v-0.604l-3.507-3.955
	C97.729,143.965,98.771,142.497,98.771,140.435 M93.958,142.16h-3.256v-3.344h3.256c1.338,0,1.815,0.9,1.815,1.672
	C95.773,141.297,95.296,142.16,93.958,142.16"/>
<polygon fill="#00386D" points="111.961,140.842 108.965,135.977 105.664,135.977 105.664,136.506 110.456,143.721 110.456,149.096 
	113.454,149.096 113.454,143.725 118.426,136.508 118.426,135.977 115.094,135.977 "/>
<polygon fill="#00386D" points="133.979,141.252 128.497,141.252 128.497,135.994 125.499,135.994 125.499,149.113 128.497,149.113 
	128.497,144.073 133.979,144.073 133.979,149.113 136.958,149.113 136.958,135.994 133.979,135.994 "/>
<polygon fill="#00386D" points="140.02,149.096 150.003,149.096 150.003,146.135 143,146.135 143,143.965 149.754,143.965 
	149.754,141.127 143,141.127 143,138.904 150.003,138.904 150.003,135.977 140.02,135.977 "/>
<path fill="#00386D" d="M163.794,140.435c0-2.132-1.504-4.439-4.812-4.458c-0.988,0-1.978-0.004-2.967-0.008
	c-0.99-0.004-1.978-0.01-2.966-0.01h-0.324v13.137h2.998v-4.168h1.791l3.636,4.168h3.269v-0.604l-3.507-3.955
	C162.752,143.965,163.794,142.497,163.794,140.435 M158.982,142.16h-3.259v-3.344h3.259c1.34,0,1.813,0.9,1.813,1.672
	C160.796,141.297,160.32,142.16,158.982,142.16"/>
<path fill="#00386D" d="M177.355,140.435c0-2.132-1.507-4.439-4.812-4.458c-0.99,0-1.979-0.004-2.964-0.008
	c-0.99-0.004-1.98-0.01-2.97-0.01h-0.322v13.137h2.998v-4.168h1.793l3.634,4.168h3.269v-0.604l-3.509-3.955
	C176.312,143.965,177.355,142.497,177.355,140.435 M172.543,142.16h-3.258v-3.344h3.258c1.339,0,1.814,0.9,1.814,1.672
	C174.357,141.297,173.882,142.16,172.543,142.16"/>
<polygon fill="#00386D" points="179.793,149.096 189.775,149.096 189.775,146.135 182.775,146.135 182.775,143.965 189.528,143.965 
	189.528,141.127 182.775,141.127 182.775,138.904 189.775,138.904 189.775,135.977 179.793,135.977 "/>
<path fill="#00386D" d="M203.569,140.435c0-2.132-1.507-4.439-4.812-4.458c-0.989,0-1.979-0.004-2.967-0.008
	c-0.99-0.004-1.978-0.01-2.967-0.01H192.5v13.137h2.998v-4.168h1.792l3.634,4.168h3.27v-0.604l-3.507-3.955
	C202.526,143.965,203.569,142.497,203.569,140.435 M198.758,142.16h-3.26v-3.344h3.26c1.338,0,1.812,0.9,1.812,1.672
	C200.57,141.297,200.094,142.16,198.758,142.16"/>
<path fill="#00386D" d="M213.451,135.977h-2.982l-5.885,13.119h3.257l1.067-2.352h6.104l1.051,2.352h3.275L213.451,135.977z
	 M210.137,143.906l1.821-4.179l1.825,4.179H210.137z"/>
<path fill="#00386D" d="M149.597,128.221l-0.003-0.002c-0.304,0.401-1.066,0.651-1.759,0.651c-0.331,0-1.397-0.084-1.772-1.103
	h3.555v-0.003h0.667l-0.003,0.003h0.779h0.146l0.016-0.145l0.031-0.314c0.111-1.149-0.159-2.123-0.784-2.813
	c-0.62-0.683-1.554-1.058-2.634-1.058c-1.994,0-3.501,1.525-3.501,3.549c0,2.047,1.441,3.473,3.501,3.473
	c1.19,0,2.32-0.51,2.947-1.333l0.202-0.269l0.098-0.125l-0.124-0.099l-0.916-0.646l-0.181-0.114L149.597,128.221z M146.061,126.238
	c0.267-0.775,0.932-1.25,1.774-1.25c0.996,0,1.635,0.441,1.822,1.25H146.061z"/>
</svg>
