<svg id="information" xmlns="http://www.w3.org/2000/svg" width="29.943" height="29.943" viewBox="0 0 29.943 29.943">
  <path id="Path_6" data-name="Path 6" d="M14.971,0A14.971,14.971,0,1,0,29.943,14.972,14.989,14.989,0,0,0,14.971,0Zm0,27.221A12.249,12.249,0,1,1,27.221,14.972,12.263,12.263,0,0,1,14.971,27.221Z" fill="#5f48ff"/>
  <path id="Path_7" data-name="Path 7" d="M146.816,70a1.815,1.815,0,1,0,1.814,1.816A1.817,1.817,0,0,0,146.816,70Z" transform="translate(-131.845 -63.648)" fill="#5f48ff"/>
  <path id="Path_8" data-name="Path 8" d="M151.361,140A1.361,1.361,0,0,0,150,141.361v8.166a1.361,1.361,0,1,0,2.722,0v-8.166A1.361,1.361,0,0,0,151.361,140Z" transform="translate(-136.39 -127.297)" fill="#5f48ff"/>
</svg>
