<svg xmlns="http://www.w3.org/2000/svg" width="385" height="385" viewBox="0 0 385 385">
  <g id="favicon" transform="translate(-2362 -1405)">
    <g id="_001-trade" data-name="001-trade" transform="translate(1196.659 1354.851)">
      <circle id="Ellipse_2" data-name="Ellipse 2" cx="192.5" cy="192.5" r="192.5" transform="translate(1165.341 50.149)" fill="#ffbc42"/>
      <g id="Group_6" data-name="Group 6" transform="translate(1266.624 90.378)">
        <g id="Group_5" data-name="Group 5" transform="translate(0 0)">
          <path id="Path_3" data-name="Path 3" d="M565.113,229.506a67.361,67.361,0,0,0-37.055-53.474l-79.569-39.786A7.135,7.135,0,0,1,451.51,122.7H565.426V62.237H504.963V32H444.5V62.962A67.358,67.358,0,0,0,421.4,190.3l79.572,39.786a7.135,7.135,0,0,1-3.022,13.544H384.031V304.1H444.5v30.232h60.465V303.373A67.357,67.357,0,0,0,565.113,229.506Z" transform="translate(-383.989 -32.004)" fill="#272749"/>
        </g>
      </g>
    </g>
  </g>
</svg>
