<svg xmlns="http://www.w3.org/2000/svg" width="168" height="37.49" viewBox="0 0 168 37.49">
  <g id="logo" transform="translate(-145 -11)">
    <g id="_001-trade" data-name="001-trade" transform="translate(145 11.192)">
      <g id="Group_2" data-name="Group 2" transform="translate(2.486 31.082)">
        <g id="Group_1" data-name="Group 1">
          <path id="Path_1" data-name="Path 1" d="M33.865,400a1.865,1.865,0,1,0,1.865,1.865A1.865,1.865,0,0,0,33.865,400Zm0,2.486a.622.622,0,1,1,.622-.622A.622.622,0,0,1,33.865,402.49Z" transform="translate(-32 -400.004)" fill="#ffbc42"/>
        </g>
      </g>
      <g id="Group_4" data-name="Group 4" transform="translate(0 0.004)">
        <g id="Group_3" data-name="Group 3" transform="translate(0 0)">
          <path id="Path_2" data-name="Path 2" d="M36.866,26.325a3,3,0,0,0-2.575-1.458H34.16a3.011,3.011,0,0,0-1.413.353L27.97,27.767V19.272h2.175a3.419,3.419,0,0,0,0-6.837H16.782a3.108,3.108,0,0,1,0-6.216h2.175L22.5,10.943a.622.622,0,0,0,.5.249H36.672a.622.622,0,0,0,.622-.622V.626A.622.622,0,0,0,36.672,0H23a.622.622,0,0,0-.5.249L18.958,4.976H16.782a4.351,4.351,0,0,0,0,8.7H30.146a2.175,2.175,0,0,1,0,4.351H27.97V15.543a.622.622,0,0,0-.622-.622H9.945a.622.622,0,0,0-.622.622v9.323a9.248,9.248,0,0,0-1.4.622H0v1.243H7.459v9.323H0V37.3H23.552a3.107,3.107,0,0,0,1.6-.443l10.684-6.41A3,3,0,0,0,36.866,26.325ZM24.249,7.356a1.865,1.865,0,1,0-2.38-2.38H20.512l2.8-3.729H36.051v8.7H23.309l-2.8-3.729h1.357A1.865,1.865,0,0,0,24.249,7.356ZM23,5.6a.622.622,0,1,1,.622.622A.622.622,0,0,1,23,5.6ZM17.4,16.165H19.89v2.486H17.4Zm-6.837,0h5.594v3.108a.622.622,0,0,0,.622.622h3.729a.622.622,0,0,0,.622-.622V16.165h5.594V28.43l-1.018.543A2.8,2.8,0,0,0,23,25.488H16.944a9.432,9.432,0,0,0-6.378-.965ZM35.2,29.378l-10.684,6.41a1.864,1.864,0,0,1-.96.266H8.7V26.482a8.186,8.186,0,0,1,7.77.17.617.617,0,0,0,.311.079H23a1.554,1.554,0,1,1,0,3.108H17.4a.622.622,0,1,0,0,1.243h6.837a.621.621,0,0,0,.293-.073l8.8-4.693a1.765,1.765,0,0,1,.828-.207h.131a1.76,1.76,0,0,1,.9,3.269Z" transform="translate(0 -0.004)" fill="#ffbc42"/>
        </g>
      </g>
      <g id="Group_6" data-name="Group 6" transform="translate(29.834 2.49)">
        <g id="Group_5" data-name="Group 5">
          <path id="Path_3" data-name="Path 3" d="M387.713,36.064a1.385,1.385,0,0,0-.762-1.1l-1.636-.818a.147.147,0,0,1,.062-.278h2.342V32.626h-1.243V32h-1.243v.636a1.385,1.385,0,0,0-.475,2.618l1.636.818a.147.147,0,0,1-.062.278H383.99V37.6h1.243v.622h1.243v-.636A1.385,1.385,0,0,0,387.713,36.064Z" transform="translate(-383.989 -32.004)" fill="#ffbc42"/>
        </g>
      </g>
    </g>
    <text id="VENTASCEL" transform="translate(190 30)" fill="#fff" font-size="20" font-family="Montserrat-SemiBold, Montserrat" font-weight="600"><tspan x="0" y="0">VENTAS</tspan><tspan y="0" fill="#ffbc42">CEL</tspan></text>
    <text id="Por_catálogo" data-name="Por catálogo" transform="translate(190 44)" fill="#ffbc42" font-size="13" font-family="Montserrat-Regular, Montserrat"><tspan x="0" y="0">Por catálogo</tspan></text>
  </g>
</svg>
