<svg xmlns="http://www.w3.org/2000/svg" width="25.306" height="24.779" viewBox="0 0 25.306 24.779">
  <g id="ic-github" transform="translate(0 -5.329)">
    <g id="Group_1" data-name="Group 1" transform="translate(0 5.329)">
      <path id="Path_8" data-name="Path 8" d="M12.652,5.329a12.711,12.711,0,0,0-4,24.757c.633.117.864-.275.864-.612,0-.3-.011-1.1-.017-2.161-3.519.767-4.263-1.7-4.263-1.7a3.355,3.355,0,0,0-1.4-1.858c-1.15-.788.085-.772.085-.772a2.657,2.657,0,0,1,1.938,1.31A2.689,2.689,0,0,0,9.54,25.345a2.712,2.712,0,0,1,.8-1.7c-2.809-.321-5.764-1.411-5.764-6.278a4.924,4.924,0,0,1,1.3-3.41A4.578,4.578,0,0,1,6.007,10.6s1.063-.342,3.48,1.3a11.943,11.943,0,0,1,6.336,0c2.415-1.643,3.476-1.3,3.476-1.3a4.584,4.584,0,0,1,.127,3.361,4.915,4.915,0,0,1,1.3,3.41c0,4.879-2.958,5.953-5.776,6.268a3.039,3.039,0,0,1,.859,2.352c0,1.7-.016,3.068-.016,3.484,0,.34.228.735.87.611A12.712,12.712,0,0,0,12.652,5.329Z" transform="translate(0 -5.329)" fill="#120e48"/>
    </g>
  </g>
</svg>
