<svg xmlns="http://www.w3.org/2000/svg" width="37.241" height="45.452" viewBox="0 0 37.241 45.452">
  <g id="ic-ghost-srr-portafolio" transform="translate(0 0.001)">
    <path id="Path_1" data-name="Path 1" d="M37.241,18.62V45.451l-4.225-2.877-2.868,1.971-2.854-1.971L24.4,44.539l-2.876-1.968-2.553,1.735-.34.231L15.75,42.574,12.9,44.545,10.04,42.573l-2.9,1.965-2.879-1.97L0,45.431V18.62A18.642,18.642,0,0,1,18.621,0c.118,0,.235,0,.353,0A18.642,18.642,0,0,1,37.241,18.62Zm0,0" fill="#c5c9f7"/>
    <path id="Path_2" data-name="Path 2" d="M232,18.656V45.487l-4.225-2.877-2.868,1.971-2.854-1.971-2.892,1.965-2.876-1.968-2.553,1.735V.039A18.642,18.642,0,0,1,232,18.656Zm0,0" transform="translate(-194.757 -0.036)" fill="#a7aff2"/>
    <path id="Path_3" data-name="Path 3" d="M82.05,152.406a4.882,4.882,0,1,0,4.882,4.882A4.888,4.888,0,0,0,82.05,152.406Zm0,0" transform="translate(-70.317 -138.877)" fill="#4b5be6"/>
    <path id="Path_4" data-name="Path 4" d="M237.23,152.406a4.882,4.882,0,1,0,4.882,4.882A4.888,4.888,0,0,0,237.23,152.406Zm0,0" transform="translate(-211.722 -138.877)" fill="#283ee1"/>
  </g>
</svg>
