<svg xmlns="http://www.w3.org/2000/svg" xmlns:xlink="http://www.w3.org/1999/xlink" width="130.658" height="103.768" viewBox="0 0 130.658 103.768">
  <defs>
    <linearGradient id="linear-gradient" x1="0.844" y1="1.137" x2="0.387" y2="0.307" gradientUnits="objectBoundingBox">
      <stop offset="0" stop-color="#d2deff" stop-opacity="0"/>
      <stop offset="1" stop-color="#b7c5ff"/>
    </linearGradient>
  </defs>
  <g id="ic-message" transform="translate(0 -52.685)">
    <path id="Path_16" data-name="Path 16" d="M128.073,97.376c-5.705-14.517-23.28-23.223-38.165-17.462-16.991,6.576-11.358,33.6-26.791,39.067-8.337,2.952-20.661-8.075-29.084-9.766C18.512,106.1,4.461,117.05,1,132.216c-3.53,15.472,2.132,36.137,19.131,40.337,20.249,5,30.8-13.2,47.784-18.428,17.432-5.364,36.815,7.3,51.246-8.109C129.824,134.63,133.722,111.751,128.073,97.376Z" transform="translate(0 -18.943)" fill="url(#linear-gradient)"/>
    <g id="Group_20" data-name="Group 20" transform="translate(13.987 52.685)">
      <path id="Path_17" data-name="Path 17" d="M166.235,125.326a18.251,18.251,0,0,0-35.325-6.448H64.916a5.1,5.1,0,0,0-5.1,5.1v56.5a5.1,5.1,0,0,0,5.1,5.1h89.923a5.1,5.1,0,0,0,5.1-5.1V139.107A18.2,18.2,0,0,0,166.235,125.326Z" transform="translate(-58.536 -93.196)" fill="#2626bc" opacity="0.1"/>
      <g id="Group_18" data-name="Group 18" transform="translate(0 4.82)">
        <g id="Group_10" data-name="Group 10" transform="translate(1.276 14.483)">
          <path id="Path_18" data-name="Path 18" d="M154.838,195.035H64.916a5.1,5.1,0,0,1-5.1-5.1v-56.5a5.1,5.1,0,0,1,5.1-5.1h89.923a5.1,5.1,0,0,1,5.1,5.1v56.5A5.1,5.1,0,0,1,154.838,195.035Z" transform="translate(-59.812 -128.326)" fill="#fff"/>
          <path id="Path_19" data-name="Path 19" d="M111.432,222.169l48.511,37.264a5.1,5.1,0,0,1-5.1,5.1H64.916a5.1,5.1,0,0,1-5.1-5.1l48.511-37.264A2.552,2.552,0,0,1,111.432,222.169Z" transform="translate(-59.812 -197.828)" fill="#fff"/>
          <path id="Path_20" data-name="Path 20" d="M108.323,170.694,59.812,133.43a5.1,5.1,0,0,1,5.1-5.1h89.923a5.1,5.1,0,0,1,5.1,5.1l-48.51,37.264A2.552,2.552,0,0,1,108.323,170.694Z" transform="translate(-59.812 -128.326)" fill="#fff"/>
        </g>
        <g id="Group_16" data-name="Group 16" transform="translate(39.357 66.196)">
          <path id="Path_21" data-name="Path 21" d="M343.289,339.176h-8.2a1.276,1.276,0,0,1-1.276-1.276v-5.653a1.276,1.276,0,0,1,1.276-1.276h8.2a1.276,1.276,0,0,1,1.276,1.276V337.9A1.276,1.276,0,0,1,343.289,339.176Z" transform="translate(-301.972 -330.971)" fill="#6583fe"/>
          <g id="Group_15" data-name="Group 15" transform="translate(0 0.452)">
            <g id="Group_12" data-name="Group 12" transform="translate(17.863)">
              <g id="Group_11" data-name="Group 11">
                <path id="Path_22" data-name="Path 22" d="M287.417,335.295h-7.1a1.276,1.276,0,0,1,0-2.552h7.1a1.276,1.276,0,1,1,0,2.552Z" transform="translate(-279.038 -332.743)" fill="#2626bc"/>
              </g>
            </g>
            <g id="Group_14" data-name="Group 14" transform="translate(0 5.201)">
              <g id="Group_13" data-name="Group 13">
                <path id="Path_23" data-name="Path 23" d="M235.28,355.677H210.314a1.276,1.276,0,1,1,0-2.552H235.28a1.276,1.276,0,1,1,0,2.552Z" transform="translate(-209.038 -353.125)" fill="#2626bc"/>
              </g>
            </g>
          </g>
        </g>
        <g id="Group_17" data-name="Group 17" transform="translate(0 0)">
          <circle id="Ellipse_27" data-name="Ellipse 27" cx="18.25" cy="18.25" r="18.25" transform="matrix(0.16, -0.987, 0.987, 0.16, 68.493, 36.026)" fill="#6583fe"/>
          <path id="Path_24" data-name="Path 24" d="M144.261,116.129a19.559,19.559,0,1,0-11.959-4.108l-25.371,19.489a1.277,1.277,0,0,1-1.555,0L57.41,94.665a3.834,3.834,0,0,1,3.782-3.234h58.532a1.276,1.276,0,1,0,0-2.552H61.192a6.387,6.387,0,0,0-6.38,6.38v56.5a6.387,6.387,0,0,0,6.38,6.38h89.923a6.387,6.387,0,0,0,6.38-6.38V118.039a1.276,1.276,0,0,0-2.552,0v31.132l-33.406-25.662,13-9.986A19.4,19.4,0,0,0,144.261,116.129Zm-53.49,7.38L57.364,149.171V97.847Zm64.122,28.841a3.83,3.83,0,0,1-3.778,3.238H61.192a3.83,3.83,0,0,1-3.778-3.238l35.451-27.232,10.956,8.416a3.833,3.833,0,0,0,4.664,0l10.956-8.416ZM127.286,96.6a16.975,16.975,0,1,1,16.974,16.974A16.994,16.994,0,0,1,127.286,96.6Z" transform="translate(-54.812 -75.671)" fill="#2626bc"/>
        </g>
        <path id="Path_25" data-name="Path 25" d="M373.815,124.031l2.6,6.224-2.6,6.224a1.276,1.276,0,0,0,1.678,1.666l15.725-6.716a1.276,1.276,0,0,0,0-2.347l-15.725-6.716A1.276,1.276,0,0,0,373.815,124.031Z" transform="translate(-292.332 -109.324)" fill="#fff"/>
      </g>
      <g id="Group_19" data-name="Group 19" transform="translate(25.537)">
        <path id="Path_26" data-name="Path 26" d="M320.033,60.082A3.7,3.7,0,1,1,322.649,59,3.688,3.688,0,0,1,320.033,60.082Zm0-4.846a1.148,1.148,0,1,0,.812.336A1.145,1.145,0,0,0,320.033,55.236Z" transform="translate(-275.134 -52.685)" fill="#6583fe"/>
        <path id="Path_27" data-name="Path 27" d="M207.743,437.726a3.7,3.7,0,1,1,2.616-1.082A3.689,3.689,0,0,1,207.743,437.726Zm0-4.846a1.148,1.148,0,1,0,.812.336A1.145,1.145,0,0,0,207.743,432.88Z" transform="translate(-191.499 -333.958)" fill="#6583fe"/>
        <path id="Path_28" data-name="Path 28" d="M276.9,80.024a1.272,1.272,0,0,1-.9-.374l-1.522-1.522-1.522,1.522a1.276,1.276,0,1,1-1.8-1.8l2.424-2.424a1.276,1.276,0,0,1,1.8,0l2.424,2.424a1.276,1.276,0,0,1-.9,2.178Z" transform="translate(-241.205 -69.341)" fill="#6583fe"/>
        <path id="Path_29" data-name="Path 29" d="M421.871,425.8a1.272,1.272,0,0,1-.9-.374l-1.522-1.522-1.522,1.522a1.276,1.276,0,0,1-1.8-1.8l2.424-2.424a1.276,1.276,0,0,1,1.8,0l2.424,2.424a1.276,1.276,0,0,1-.9,2.178Z" transform="translate(-349.177 -326.878)" fill="#6583fe"/>
        <path id="Path_30" data-name="Path 30" d="M161.009,430.549a1.272,1.272,0,0,1-.9-.374l-1.522-1.522-1.522,1.522a1.276,1.276,0,1,1-1.8-1.8l2.424-2.424a1.276,1.276,0,0,1,1.8,0l2.424,2.424a1.276,1.276,0,0,1-.9,2.178Z" transform="translate(-154.884 -330.416)" fill="#6583fe"/>
      </g>
    </g>
  </g>
</svg>
