<svg xmlns="http://www.w3.org/2000/svg" width="27.967" height="59.97" viewBox="0 0 27.967 59.97">
  <path id="ic-scroll" d="M153.268,0h-5.334a11.413,11.413,0,0,0-11.3,11.294L136.6,23.05a.878.878,0,0,0,.876.881h0a.879.879,0,0,0,.879-.876l.023-6.759h16.059a.879.879,0,0,0,0-1.757h-3V8.849a.879.879,0,0,0-1.757,0v5.69h-11.3l.011-3.242a9.668,9.668,0,0,1,9.54-9.54h1.747v2.9a.879.879,0,0,0,1.757,0v-2.9h1.83a9.551,9.551,0,0,1,9.54,9.54v3.242h-4.176a.879.879,0,0,0,0,1.757h4.176V31.752a9.481,9.481,0,0,1-8.927,9.466V38.129a3.221,3.221,0,1,0-6.443,0v3.089a9.532,9.532,0,0,1-9.044-9.467V27.368a.879.879,0,0,0-1.757,0v4.384a11.292,11.292,0,0,0,10.8,11.226v6.058L144.5,46.1a3.222,3.222,0,0,0-4.556,4.556l8.376,8.376a3.237,3.237,0,0,0,4.556,0l3.265-3.265a.879.879,0,0,0-1.243-1.242l-3.265,3.265a1.471,1.471,0,0,1-2.071,0l-8.376-8.375a1.464,1.464,0,1,1,2.071-2.071l4.422,4.422a.894.894,0,0,0,1.513-.634v-13a1.464,1.464,0,1,1,2.929,0V51.015a.894.894,0,0,0,1.512.634l4.3-4.3a1.464,1.464,0,1,1,2.071,2.071L157.8,51.626a.879.879,0,0,0,1.243,1.243l2.211-2.211A3.222,3.222,0,0,0,156.7,46.1l-2.818,2.818V42.978a11.2,11.2,0,0,0,10.685-11.226V11.3A11.31,11.31,0,0,0,153.268,0Z" transform="translate(-136.598 0)" fill="#9d9bb7"/>
</svg>
