<svg xmlns="http://www.w3.org/2000/svg" width="60" height="60" viewBox="0 0 60 60">
  <g id="skill-2" transform="translate(-705 -963)">
    <rect id="Rectangle_4" data-name="Rectangle 4" width="60" height="60" rx="20" transform="translate(705 963)" fill="#fff4e4"/>
    <g id="ux-design" transform="translate(722.435 965)">
      <path id="Path_14" data-name="Path 14" d="M20.662,24.237c0-.046,0-.092,0-.138a8.1,8.1,0,0,0-16.2,0c0,.046,0,.092,0,.138a8.1,8.1,0,1,0,8.1,14.009,8.051,8.051,0,0,0,4.418,1.314,8.09,8.09,0,0,0,3.679-15.323ZM12.565,36.4a6.614,6.614,0,0,1-2.194-4.5,8.117,8.117,0,0,0,4.388,0A6.614,6.614,0,0,1,12.565,36.4Zm0-5.671a6.6,6.6,0,0,1-2.12-.348,6.623,6.623,0,0,1,2.12-3.85,6.623,6.623,0,0,1,2.12,3.85A6.6,6.6,0,0,1,12.565,30.725Zm-3.494-1a6.641,6.641,0,0,1-3.044-4.549,6.693,6.693,0,0,1,2.12-.343,6.585,6.585,0,0,1,3.193.822A8.1,8.1,0,0,0,9.072,29.727Zm4.718-4.07a6.585,6.585,0,0,1,3.193-.822,6.693,6.693,0,0,1,2.12.343,6.641,6.641,0,0,1-3.044,4.549A8.1,8.1,0,0,0,13.79,25.657Zm-1.224-8.184a6.635,6.635,0,0,1,6.611,6.189,8.173,8.173,0,0,0-2.194-.3,8.051,8.051,0,0,0-4.418,1.314,8.051,8.051,0,0,0-4.418-1.314,8.173,8.173,0,0,0-2.194.3A6.635,6.635,0,0,1,12.565,17.473ZM8.148,38.088a6.616,6.616,0,0,1-3.5-12.268,8.129,8.129,0,0,0,4.235,5.493c0,.05,0,.1,0,.149a8.075,8.075,0,0,0,2.457,5.8A6.585,6.585,0,0,1,8.148,38.088Zm8.835,0a6.585,6.585,0,0,1-3.193-.822,8.075,8.075,0,0,0,2.457-5.8c0-.05,0-.1,0-.149a8.129,8.129,0,0,0,4.235-5.493,6.616,6.616,0,0,1-3.5,12.268Z" fill="#f2a833"/>
    </g>
  </g>
</svg>
