<svg xmlns="http://www.w3.org/2000/svg" width="60" height="60" viewBox="0 0 60 60">
  <g id="skill-3" transform="translate(-151 -1172)">
    <rect id="Rectangle_5" data-name="Rectangle 5" width="60" height="60" rx="20" transform="translate(151 1172)" fill="#fff5f6"/>
    <path id="edition" d="M12,8.438Zm.552.034,6.387-7.348a2.812,2.812,0,0,1,4.524,3.342l-6.883,7.928a4.711,4.711,0,0,1-1.307,4.064,7.258,7.258,0,0,1-5.619,2.01A8.763,8.763,0,0,1,4.82,16.812.937.937,0,0,1,5.045,15.2c1.364-.541,1.692-1.484,2.108-2.676A6.412,6.412,0,0,1,8.67,9.8,4.815,4.815,0,0,1,12,8.437a5.058,5.058,0,0,1,.552.034Zm1.894.679a4.77,4.77,0,0,1,.827.665h0a4.7,4.7,0,0,1,.521.624l6.171-7.1a.938.938,0,0,0-1.536-1.074Zm-.5,1.987a2.737,2.737,0,0,0-1.929-.825,2.937,2.937,0,0,0-2.048.842,4.747,4.747,0,0,0-1.042,1.983,6.35,6.35,0,0,1-1.69,2.9,6.1,6.1,0,0,0,2.42.554,5.409,5.409,0,0,0,4.289-1.457A2.842,2.842,0,0,0,13.942,11.138Zm9.12-2.982a.937.937,0,0,0-.937.937V15.75a.937.937,0,0,0,1.875,0V9.094A.937.937,0,0,0,23.062,8.156Zm0,11.156a.937.937,0,0,0-.937.937,1.877,1.877,0,0,1-1.875,1.875H3.75A1.877,1.877,0,0,1,1.875,20.25V3.75A1.877,1.877,0,0,1,3.75,1.875H15.515a.937.937,0,0,0,0-1.875H3.75A3.754,3.754,0,0,0,0,3.75v16.5A3.754,3.754,0,0,0,3.75,24h16.5A3.754,3.754,0,0,0,24,20.25.937.937,0,0,0,23.062,19.312Z" transform="translate(169 1190)" fill="#f65c5c"/>
  </g>
</svg>
