<svg xmlns="http://www.w3.org/2000/svg" width="60" height="60" viewBox="0 0 60 60">
  <g id="skill-4" transform="translate(-705 -1172)">
    <rect id="Rectangle_6" data-name="Rectangle 6" width="60" height="60" rx="20" transform="translate(705 1172)" fill="#f4f3ff"/>
    <path id="add-group" d="M14.48,16.889a9.272,9.272,0,0,0-1.948-1.04,4.971,4.971,0,0,0,1.617-3.279,7.351,7.351,0,0,1,9.321-.763.977.977,0,1,0,1.117-1.6,9.283,9.283,0,0,0-1.948-1.04,4.98,4.98,0,1,0-6.706-.011q-.2.079-.406.167a9.274,9.274,0,0,0-1.72.988,4.98,4.98,0,1,0-7.99,5.52A9.392,9.392,0,0,0,.146,21.673,2.93,2.93,0,0,0,2.935,25.5h8.5a.977.977,0,0,0,0-1.953h-8.5a.977.977,0,0,1-.93-1.276,7.535,7.535,0,0,1,7.159-5.1,7.3,7.3,0,0,1,4.2,1.317.976.976,0,1,0,1.117-1.6ZM19.293,2.454a3.027,3.027,0,1,1-3.027,3.027A3.031,3.031,0,0,1,19.293,2.454ZM9.185,9.137a3.027,3.027,0,1,1-3.027,3.027A3.031,3.031,0,0,1,9.185,9.137Zm15.82,11.725a.977.977,0,0,1-.977.976H21.343v2.685a.977.977,0,1,1-1.953,0V21.838H16.7a.977.977,0,0,1,0-1.953H19.39V17.2a.977.977,0,0,1,1.953,0v2.685h2.685a.977.977,0,0,1,.977.977Zm0,0" transform="translate(721.997 1189.499)" fill="#6458ff"/>
  </g>
</svg>
